<svg width="32" height="32" viewBox="0 0 32 32" fill="none" xmlns="http://www.w3.org/2000/svg">
<g clip-path="url(#clip0)">
<path d="M18.0123 26.0227L17.1716 26.622L17.3006 26.8032C17.4627 27.0303 17.5483 27.2972 17.5483 27.5751C17.5483 28.3077 16.9528 28.9032 16.2202 28.9032V29.9355C17.5216 29.9355 18.5806 28.8765 18.5806 27.5751C18.5806 27.0809 18.4289 26.6069 18.1413 26.2039L18.0123 26.0227Z" fill="#FF7F08"/>
<path d="M16.0664 25.0731L16.9061 24.4733L17.4522 25.2379L16.6128 25.8377L16.0664 25.0731Z" fill="#FF7F08"/>
<path d="M32 16C32 13.9297 31.6066 11.9231 30.8412 10.0242C31.2288 9.74294 31.4839 9.28881 31.4839 8.77419C31.4839 8.07132 31.0101 7.48286 30.3674 7.29435L29.0668 1.22429C28.9146 0.515121 28.2782 0 27.5524 0H18.8992C18.6595 0 18.4325 0.0604839 18.2266 0.161038C17.4932 0.0587197 16.7462 0 16 0C7.17717 0 0 7.17792 0 16C0 19.6305 1.24798 23.1736 3.51285 26L3.57208 27.4194C3.6066 28.2513 4.28654 28.9032 5.11895 28.9032H6.54763C9.11391 30.7865 12.1207 31.8354 15.2944 31.972C15.4544 31.9897 15.6154 32 15.7797 32H16.2203C16.2946 32 16.3674 31.9922 16.4408 31.9887C20.3856 31.8813 23.9783 30.3438 26.7147 27.871H26.8387V27.7563C30.0093 24.8309 32 20.6442 32 16ZM26.3059 26.8387H20.5806C20.4703 26.1807 20.2157 25.5557 19.8213 25.0028L18.223 22.7654L18.7944 22.1935H27.871V12.9032H18.5806V19.7946C18.4599 19.7848 18.3369 19.7873 18.2152 19.8178L17.6305 19.964L17.0633 10.3226H29.3884L28.5781 24.098C27.9304 25.1003 27.1671 26.0197 26.3059 26.8387ZM16.4408 30.9564C16.2941 30.9609 16.1477 30.9677 16 30.9677C15.7951 30.9677 15.5932 30.9519 15.3899 30.9435C13.7026 30.7495 12.3871 29.314 12.3871 27.5751C12.3871 26.8639 12.6053 26.1822 13.0189 25.6036L14.7175 23.2258H17.283L18.9816 25.6031C19.3947 26.1822 19.6129 26.8639 19.6129 27.5751C19.6129 29.3715 18.2084 30.8417 16.4408 30.9564ZM3.09677 15.4839V14.4516H14.4516V15.4839H3.09677ZM4.27394 13.4194L4.53276 12.3871H13.0169L13.2755 13.4194H4.27394ZM17.7041 21.0091L18.466 20.8191C18.5018 20.8087 18.529 20.8233 18.5451 20.8357C18.561 20.8485 18.5806 20.8712 18.5806 20.909C18.5806 20.9337 18.5708 20.9569 18.5532 20.9745L17.3347 22.1935H14.6653L13.4461 20.9745C13.4292 20.9569 13.4194 20.9342 13.4194 20.909C13.4194 20.8712 13.439 20.8485 13.4549 20.8357C13.471 20.8233 13.4957 20.8097 13.5345 20.8191L14.2951 21.0091C14.8634 21.152 15.4498 20.8274 15.6356 20.2734L15.8354 19.6759C15.8478 19.6381 15.8828 19.6129 15.9231 19.6129H16.0774C16.1172 19.6129 16.1527 19.6381 16.1656 19.6764L16.3649 20.2734C16.5496 20.8284 17.1421 21.151 17.7041 21.0091ZM19.6129 13.9355H26.8387V21.1613H19.6129V13.9355ZM29.7389 21.9325L30.3402 11.7099C30.7545 13.0938 30.9677 14.5295 30.9677 16C30.9677 18.1069 30.528 20.1124 29.7389 21.9325ZM29.9355 9.29032H16.5161C16.2313 9.29032 16 9.05847 16 8.77419C16 8.48992 16.2313 8.25806 16.5161 8.25806H29.9355C30.2203 8.25806 30.4516 8.48992 30.4516 8.77419C30.4516 9.05847 30.2203 9.29032 29.9355 9.29032ZM19.2104 7.22581L20.036 3.09677H26.4161L27.2417 7.22581H19.2104ZM18.8992 1.03226H27.5524C27.7946 1.03226 28.0068 1.20413 28.0577 1.44052L29.2971 7.22581H28.2941L27.2618 2.06452H19.1903L18.158 7.22581H17.1545L18.3944 1.44002C18.4448 1.20413 18.657 1.03226 18.8992 1.03226ZM1.03226 16C1.03226 7.74647 7.74698 1.03226 16 1.03226C16.4753 1.03226 16.9496 1.06225 17.4209 1.10711C17.409 1.14642 17.3936 1.18347 17.3848 1.22429L16.0842 7.29486C15.4415 7.48286 14.9677 8.07132 14.9677 8.77419C14.9677 9.45489 15.4125 10.0285 16.0242 10.2349L16.5212 18.684C16.3826 18.6235 16.2354 18.5806 16.0769 18.5806H15.9226C15.4375 18.5806 15.0086 18.8899 14.8558 19.3498L14.6565 19.9463C14.6411 19.9917 14.596 20.0197 14.5456 20.0073L14.2875 19.9428L14.4304 16.5161H15.4839V13.4194H14.3385L13.8231 11.3548H3.72606L3.21043 13.4194H2.06452V16.5161H3.11794L3.43422 24.1114C1.88281 21.7054 1.03226 18.8846 1.03226 16ZM4.60333 27.3765L4.15071 16.5161H13.3972L13.2598 19.8138C13.1026 19.8498 12.9524 19.9188 12.8201 20.0222C12.5451 20.2364 12.3871 20.56 12.3871 20.909C12.3871 21.2099 12.5048 21.4927 12.717 21.7049L13.1628 22.1507L13.0978 23.7172L12.1792 25.0033C11.6396 25.7586 11.3548 26.6477 11.3548 27.5751C11.3548 27.6749 11.3632 27.7729 11.3697 27.871H5.11895C4.84173 27.871 4.61467 27.6537 4.60333 27.3765ZM11.5592 28.9032C11.7558 29.5272 12.0907 30.0892 12.5229 30.56C11.0849 30.2193 9.71195 29.6588 8.42943 28.9032H11.5592ZM19.4824 30.5544C20.1394 29.8354 20.5615 28.9022 20.6303 27.871H25.1013C23.4617 29.1308 21.5557 30.0582 19.4824 30.5544Z" fill="#FF7F08"/>
</g>
<defs>
<clipPath id="clip0">
<rect width="32" height="32" fill="white"/>
</clipPath>
</defs>
</svg>
