<svg width="783" height="780" viewBox="0 0 783 780" fill="none" xmlns="http://www.w3.org/2000/svg">
<g opacity="0.25">
<path opacity="0.25" d="M391.551 639.011V638.343C415.612 638.343 439.451 635.002 462.399 628.098L462.622 628.766C439.451 635.67 415.612 639.011 391.551 639.011Z" fill="#FF7F08"/>
<path opacity="0.25" d="M344.095 635.671C343.427 635.448 342.981 634.78 343.204 634.112C343.427 633.444 344.095 632.998 344.764 632.998C345.432 633.221 345.878 633.889 345.655 634.557C345.432 635.225 344.986 635.671 344.318 635.671C344.318 635.671 344.318 635.671 344.095 635.671ZM337.857 634.335C337.189 634.112 336.743 633.444 336.966 632.775C337.189 632.107 337.857 631.662 338.525 631.885C339.194 632.107 339.639 632.775 339.417 633.444C339.194 634.112 338.748 634.335 338.08 634.335C338.08 634.335 338.08 634.335 337.857 634.335ZM331.619 632.775C330.95 632.553 330.505 631.884 330.728 631.216C330.95 630.548 331.619 630.103 332.287 630.325C332.956 630.548 333.401 631.216 333.178 631.885C332.956 632.553 332.51 632.775 331.842 632.775C331.842 632.998 331.842 632.998 331.619 632.775ZM325.603 631.216C324.935 630.994 324.489 630.325 324.712 629.657C324.935 628.989 325.603 628.544 326.272 628.766C326.94 628.989 327.386 629.657 327.163 630.325C326.94 630.994 326.495 631.216 326.049 631.216C325.826 631.216 325.603 631.216 325.603 631.216ZM319.365 629.434C318.697 629.212 318.251 628.544 318.474 627.875C318.697 627.207 319.365 626.762 320.033 626.984C320.702 627.207 321.147 627.875 320.925 628.544C320.702 628.989 320.256 629.434 319.811 629.434C319.811 629.657 319.588 629.657 319.365 629.434ZM313.35 627.653C312.681 627.43 312.236 626.762 312.459 626.094C312.681 625.425 313.35 624.98 314.018 625.203C314.686 625.425 315.132 626.094 314.909 626.762C314.686 627.207 314.241 627.653 313.795 627.653C313.573 627.653 313.572 627.653 313.35 627.653ZM307.334 625.648C306.666 625.425 306.443 624.757 306.666 624.089C306.889 623.421 307.557 623.198 308.225 623.421C308.894 623.643 309.117 624.312 308.894 624.98C308.671 625.425 308.225 625.871 307.78 625.871C307.78 625.648 307.557 625.648 307.334 625.648ZM301.542 623.421C300.873 623.198 300.65 622.53 300.873 621.862C301.096 621.193 301.764 620.971 302.433 621.193C303.101 621.416 303.324 622.084 303.101 622.753C302.878 623.198 302.433 623.643 301.987 623.643C301.764 623.421 301.542 623.421 301.542 623.421ZM295.526 620.971C294.858 620.748 294.635 620.08 294.858 619.412C295.081 618.743 295.972 618.521 296.417 618.743C297.086 618.966 297.309 619.634 297.086 620.303C296.863 620.748 296.417 621.193 295.972 621.193C295.749 621.193 295.749 621.193 295.526 620.971ZM289.734 618.521C289.065 618.298 288.842 617.407 289.065 616.962C289.288 616.293 290.179 616.071 290.625 616.293C291.293 616.516 291.516 617.407 291.293 618.075C291.07 618.521 290.625 618.743 290.179 618.743C289.956 618.521 289.956 618.521 289.734 618.521ZM283.941 615.848C283.273 615.625 283.05 614.734 283.273 614.066C283.495 613.398 284.387 613.175 285.055 613.398C285.723 613.621 285.946 614.512 285.723 615.18C285.501 615.625 285.055 615.848 284.609 615.848C284.387 616.071 284.164 615.848 283.941 615.848ZM278.148 612.952C277.48 612.73 277.257 611.839 277.48 611.171C277.703 610.502 278.594 610.28 279.262 610.725C279.931 610.948 280.153 611.839 279.708 612.507C279.485 612.952 279.04 613.175 278.594 613.175C278.594 613.175 278.371 613.175 278.148 612.952ZM272.578 610.057C271.91 609.611 271.687 608.943 272.133 608.275C272.356 607.607 273.247 607.384 273.915 607.83C274.584 608.052 274.806 608.943 274.361 609.612C274.138 610.057 273.692 610.28 273.247 610.28C273.024 610.28 272.801 610.28 272.578 610.057ZM267.009 606.939C266.34 606.493 266.117 605.825 266.563 605.157C267.009 604.489 267.677 604.266 268.345 604.711C269.014 605.157 269.237 605.825 268.791 606.493C268.568 606.939 268.123 607.161 267.677 607.161C267.454 607.161 267.231 607.161 267.009 606.939ZM261.662 603.821C260.993 603.375 260.77 602.707 261.216 602.039C261.662 601.37 262.33 601.148 262.998 601.593C263.667 602.039 263.89 602.707 263.444 603.375C263.221 603.821 262.776 604.043 262.33 604.043C262.107 604.043 261.884 603.821 261.662 603.821ZM256.092 600.48C255.423 600.034 255.423 599.366 255.646 598.698C256.092 598.03 256.76 598.03 257.429 598.252C258.097 598.698 258.097 599.366 257.874 600.034C257.651 600.48 257.206 600.702 256.76 600.702C256.537 600.702 256.315 600.48 256.092 600.48ZM250.968 596.916C250.299 596.47 250.299 595.802 250.522 595.134C250.968 594.466 251.636 594.466 252.304 594.689C252.973 595.134 252.973 595.802 252.75 596.47C252.527 596.916 252.081 597.139 251.636 597.139C251.413 597.139 251.19 597.139 250.968 596.916ZM245.62 593.352C244.952 592.907 244.952 592.239 245.398 591.57C245.843 590.902 246.512 590.902 247.18 591.348C247.848 591.793 247.848 592.461 247.403 593.129C247.18 593.575 246.734 593.575 246.289 593.575C246.066 593.575 245.843 593.352 245.62 593.352ZM240.496 589.566C240.051 589.12 239.828 588.452 240.273 587.784C240.719 587.339 241.387 587.116 242.056 587.561C242.501 588.007 242.724 588.675 242.279 589.343C242.056 589.566 241.61 589.789 241.165 589.789C240.942 589.789 240.719 589.789 240.496 589.566ZM235.595 585.557C235.149 585.111 234.926 584.22 235.372 583.775C235.818 583.329 236.709 583.107 237.154 583.552C237.6 583.998 237.823 584.888 237.377 585.334C237.154 585.557 236.709 585.779 236.486 585.779C236.04 586.002 235.818 585.779 235.595 585.557ZM230.693 581.548C230.248 581.102 230.025 580.211 230.471 579.766C230.916 579.32 231.807 579.098 232.253 579.543C232.698 579.988 232.921 580.879 232.476 581.325C232.253 581.548 231.807 581.77 231.584 581.77C231.139 581.993 230.916 581.77 230.693 581.548ZM225.792 577.538C225.346 577.093 225.123 576.202 225.569 575.757C226.015 575.311 226.906 575.088 227.351 575.534C227.797 575.979 228.02 576.87 227.351 577.316C227.129 577.538 226.683 577.761 226.46 577.761C226.237 577.761 226.015 577.761 225.792 577.538Z" fill="#FF7F08"/>
<path opacity="0.25" d="M215.321 566.402C198.835 549.92 184.799 531.433 173.436 511.165L173.882 510.942C185.244 531.211 199.28 549.697 215.544 565.956L215.321 566.402Z" fill="#FF7F08"/>
<path opacity="0.25" d="M161.405 486.219C159.623 482.21 158.063 477.978 156.503 473.746L157.172 473.524C158.731 477.756 160.291 481.987 162.073 485.997L161.405 486.219Z" fill="#FF7F08"/>
<path opacity="0.25" d="M156.503 473.524C146.923 446.574 142.022 418.51 142.022 389.555C142.022 371.959 143.804 354.141 147.592 337.213L148.26 337.436C144.695 354.586 142.69 372.182 142.69 389.777C142.69 418.51 147.592 446.796 157.172 473.524H156.503Z" fill="#FF7F08"/>
<path d="M153.384 316.945L152.716 316.722C163.187 282.421 181.456 249.903 205.518 223.175C229.58 196.448 259.434 174.843 292.408 160.588L292.63 161.256C225.57 190.211 174.773 247.007 153.384 316.945Z" fill="#FF7F08"/>
<path d="M170.762 389.777H159.4C159.4 388.886 159.4 387.995 159.4 387.104L170.762 387.327C170.762 387.995 170.762 388.886 170.762 389.777ZM170.762 382.204L159.4 381.759C159.4 380.868 159.4 379.977 159.4 379.086L170.762 379.531C170.985 380.645 170.762 381.536 170.762 382.204ZM171.208 374.854L159.845 374.186C159.845 373.295 160.068 372.404 160.068 371.513L171.431 372.404C171.208 373.295 171.208 374.186 171.208 374.854ZM171.876 367.504L160.514 366.39C160.514 365.499 160.737 364.609 160.737 363.718L172.099 365.054C171.876 365.945 171.876 366.836 171.876 367.504ZM172.545 360.154L161.182 358.595C161.405 357.704 161.405 356.813 161.628 355.922L172.99 357.481C172.768 358.595 172.767 359.486 172.545 360.154ZM173.659 352.804L162.519 351.022C162.742 350.131 162.742 349.24 162.965 348.572L174.104 350.577C174.104 351.245 173.881 352.136 173.659 352.804ZM174.995 345.677L163.856 343.449C164.079 342.558 164.301 341.667 164.301 340.999L175.441 343.449C175.441 343.895 175.218 344.786 174.995 345.677ZM176.778 338.326L165.638 335.654C165.861 334.763 166.084 333.872 166.306 333.204L177.446 335.876C177.001 336.767 176.778 337.436 176.778 338.326ZM178.56 331.199L167.643 328.304C167.866 327.413 168.089 326.522 168.312 325.854L179.229 328.972C179.006 329.64 178.783 330.308 178.56 331.199ZM180.565 324.072L169.648 320.731C169.871 319.84 170.094 319.172 170.54 318.281L181.456 321.844C181.011 322.513 180.788 323.181 180.565 324.072ZM183.016 316.944L172.322 313.158C172.545 312.267 172.99 311.599 173.213 310.708L183.907 314.494C183.462 315.385 183.239 316.276 183.016 316.944ZM185.467 310.04L174.773 306.031C174.995 305.14 175.441 304.472 175.664 303.581L186.135 307.812C186.135 308.481 185.69 309.372 185.467 310.04ZM188.363 303.135L177.892 298.681C178.337 297.79 178.56 297.121 179.006 296.23L189.477 300.908C188.809 301.576 188.586 302.467 188.363 303.135ZM191.259 296.453L181.011 291.553C181.456 290.662 181.679 289.994 182.125 289.103L192.373 294.003C191.928 294.894 191.705 295.785 191.259 296.453ZM194.601 289.771L184.353 284.649C184.798 283.98 185.244 283.089 185.467 282.421L195.492 287.767C195.27 288.212 194.824 289.103 194.601 289.771ZM197.943 283.312L187.917 277.744C188.363 277.076 188.809 276.185 189.254 275.517L199.057 281.085C198.834 281.753 198.389 282.421 197.943 283.312ZM201.731 276.853L191.928 271.062C192.373 270.394 192.819 269.503 193.265 268.835L203.067 274.848C202.622 275.294 202.176 276.185 201.731 276.853ZM205.518 270.617L195.938 264.38C196.384 263.712 196.829 262.821 197.275 262.153L206.855 268.389C206.409 269.057 205.964 269.726 205.518 270.617ZM209.751 264.38L200.394 257.921C200.839 257.253 201.285 256.585 201.953 255.694L211.311 262.153C210.642 263.044 210.197 263.712 209.751 264.38ZM213.984 258.366L204.85 251.685C205.295 251.016 205.964 250.348 206.409 249.68L215.544 256.585C214.875 257.03 214.43 257.698 213.984 258.366ZM218.44 252.575L209.528 245.448C209.974 244.78 210.642 244.112 211.088 243.444L220 250.571C219.554 251.239 218.886 251.907 218.44 252.575ZM223.119 246.784L214.43 239.434C215.098 238.766 215.544 238.098 216.212 237.43L224.901 245.003C224.233 245.448 223.787 246.116 223.119 246.784ZM228.02 241.216L219.554 233.643C220.223 232.975 220.668 232.307 221.336 231.639L229.58 239.434C229.134 240.103 228.689 240.548 228.02 241.216ZM233.145 235.871L224.901 227.852C225.57 227.184 226.015 226.516 226.684 226.071L234.704 234.089C234.259 234.534 233.59 235.203 233.145 235.871ZM238.269 230.525L230.471 222.284C231.139 221.616 231.808 221.171 232.253 220.502L240.051 228.743C239.606 229.412 238.937 230.08 238.269 230.525ZM243.839 225.625L236.264 217.161C236.932 216.493 237.6 216.048 238.269 215.38L245.844 223.843C244.953 224.511 244.284 224.957 243.839 225.625ZM249.408 220.725L242.056 212.039C242.725 211.593 243.393 210.925 244.061 210.479L251.191 219.166C250.522 219.611 250.077 220.28 249.408 220.725ZM255.201 216.048L248.072 207.139C248.74 206.693 249.408 206.025 250.077 205.579L256.983 214.711C256.315 214.934 255.647 215.602 255.201 216.048ZM260.994 211.593L254.31 202.461C254.978 202.016 255.647 201.348 256.315 200.902L262.999 210.257C262.331 210.702 261.662 211.148 260.994 211.593Z" fill="#FF7F08"/>
<path opacity="0.25" d="M182.571 491.342C176.555 479.092 171.654 466.173 167.866 453.032L178.783 449.914C182.348 462.387 187.026 474.637 192.596 486.442L182.571 491.342Z" fill="#FF7F08"/>
<path opacity="0.25" d="M192.596 509.383C189.032 503.369 185.69 497.355 182.793 491.119L193.042 486.219C195.938 492.01 199.057 498.023 202.399 503.592L192.596 509.383Z" fill="#FF7F08"/>
<path opacity="0.25" d="M230.248 556.825C215.544 542.793 202.844 526.756 192.373 509.383L202.176 503.592C212.202 520.074 224.233 535.22 238.046 548.584L230.248 556.825Z" fill="#FF7F08"/>
<path opacity="0.25" d="M391.551 621.861C348.106 621.861 305.998 609.834 269.237 587.116L275.252 577.538C310.008 599.143 350.334 610.502 391.551 610.502C408.483 610.502 425.415 608.498 441.902 604.711L444.576 615.848C427.198 619.857 409.374 621.861 391.551 621.861Z" fill="#FF7F08"/>
<path opacity="0.25" d="M470.642 608.053L466.855 597.362C509.409 581.993 545.947 554.152 572.014 516.956L581.371 523.415C553.744 562.393 515.424 591.793 470.642 608.053Z" fill="#FF7F08"/>
<g opacity="0.25">
<path opacity="0.25" d="M623.701 392.227L612.339 392.005C612.339 391.114 612.339 390.445 612.339 389.555H623.701C623.701 390.668 623.701 391.336 623.701 392.227Z" fill="#FF7F08"/>
<path opacity="0.25" d="M598.526 494.906L588.277 489.783C588.946 488.224 589.837 486.665 590.505 485.328L600.754 490.229C600.085 491.788 599.417 493.347 598.526 494.906ZM604.319 482.878L593.847 478.424C594.516 476.865 595.184 475.306 595.852 473.746L606.324 477.978C605.655 479.537 604.987 481.097 604.319 482.878ZM609.22 470.406L598.526 466.396C599.194 464.837 599.64 463.278 600.308 461.719L611.002 465.505C610.557 467.065 609.888 468.846 609.22 470.406ZM613.453 457.933L602.536 454.592C602.982 453.033 603.427 451.251 603.873 449.692L614.79 452.81C614.567 454.369 614.121 456.151 613.453 457.933ZM617.018 445.014L605.878 442.342C606.324 440.782 606.769 439.001 606.992 437.442L618.132 439.892C617.909 441.673 617.463 443.232 617.018 445.014ZM619.914 432.096L608.774 430.091C608.997 428.532 609.443 426.75 609.666 425.191L620.805 426.973C620.36 428.532 620.137 430.314 619.914 432.096ZM621.919 418.955L610.557 417.619C610.779 415.837 611.002 414.278 611.225 412.496L622.588 413.609C622.365 415.391 622.142 417.173 621.919 418.955ZM623.033 405.591L611.671 404.923C611.893 403.141 611.893 401.582 611.893 399.8L623.256 400.246C623.256 402.027 623.256 403.809 623.033 405.591Z" fill="#FF7F08"/>
<path opacity="0.25" d="M593.624 504.261L583.821 498.692C584.267 498.024 584.712 497.356 584.935 496.465L594.961 502.033C594.293 502.702 594.07 503.37 593.624 504.261Z" fill="#FF7F08"/>
</g>
<path opacity="0.49" d="M609.22 353.027C591.396 246.339 499.828 169.052 391.551 169.052V157.693C446.803 157.693 500.497 177.515 542.382 213.152C583.821 248.566 611.67 297.567 620.582 351.245L609.22 353.027Z" fill="#FF7F08"/>
<path d="M391.55 593.798C336.966 593.798 285.723 572.638 247.18 534.106C208.637 495.574 187.471 444.346 187.471 389.777C187.471 335.208 208.637 283.98 247.18 245.448C285.723 206.916 336.966 185.534 391.55 185.534C446.135 185.534 497.377 206.693 535.92 245.225C574.464 283.758 595.629 334.985 595.629 389.554C595.629 444.123 574.464 495.351 535.92 533.883C497.377 572.638 446.135 593.798 391.55 593.798ZM391.55 186.202C279.262 186.202 188.14 277.521 188.14 389.554C188.14 501.81 279.485 592.907 391.55 592.907C503.615 592.907 594.961 501.587 594.961 389.554C594.961 277.521 503.615 186.202 391.55 186.202Z" fill="#FF7F08"/>
<path opacity="0.25" d="M675.389 543.461C620.582 643.689 514.087 711.845 391.773 711.845C272.133 711.845 167.866 646.808 111.945 550.143L62.2617 599.812C131.773 708.281 253.419 780 391.773 780C532.802 780 656.452 705.386 725.295 593.352L675.389 543.461Z" fill="#8800D6"/>
<path opacity="0.25" d="M433.881 68.8235C592.51 89.3147 714.824 224.734 714.824 388.886C714.824 410.714 712.596 432.096 708.363 452.81L764.284 508.715C776.315 470.851 782.999 430.76 782.999 388.886C783.222 187.093 630.162 20.9366 433.881 0V68.8235Z" fill="#FF7F08"/>
<path opacity="0.25" d="M77.1888 461.496C71.8418 438.11 68.9455 413.832 68.9455 389.109C68.9455 226.293 189.7 91.5418 346.546 69.4916V0.445312C151.602 22.941 0.547852 188.207 0.547852 388.886C0.547852 433.655 8.12283 476.419 21.936 516.51L77.1888 461.496Z" fill="black"/>
</g>
<g opacity="0.55">
<g opacity="0.55">
<g opacity="0.55">
<path opacity="0.55" d="M549.065 547.693L548.62 547.247C563.77 532.102 576.692 514.729 586.94 496.02L587.386 496.242C577.137 515.174 564.215 532.324 549.065 547.693Z" fill="#B3B3B3"/>
<path opacity="0.55" d="M516.983 575.311C516.537 575.757 515.869 575.534 515.423 575.089C514.977 574.643 515.2 573.975 515.646 573.529C516.091 573.084 516.76 573.307 517.205 573.752C517.428 574.198 517.428 574.866 516.983 575.311ZM512.081 578.43C511.636 578.875 510.967 578.652 510.522 577.984C510.076 577.539 510.299 576.87 510.967 576.425C511.413 575.979 512.081 576.202 512.527 576.87C512.749 577.316 512.749 577.984 512.081 578.43C512.304 578.43 512.304 578.43 512.081 578.43ZM507.402 581.548C506.957 581.77 506.066 581.77 505.843 581.102C505.62 580.657 505.62 579.989 506.288 579.543C506.734 579.32 507.625 579.32 507.848 579.989C508.071 580.434 507.848 580.88 507.402 581.548C507.402 581.325 507.402 581.325 507.402 581.548ZM502.501 584.443C502.055 584.666 501.164 584.666 500.941 583.998C500.719 583.552 500.719 582.661 501.387 582.439C501.833 582.216 502.724 582.216 502.947 582.884C503.169 583.33 503.169 583.998 502.724 584.22C502.724 584.22 502.501 584.22 502.501 584.443ZM497.6 587.116C497.154 587.339 496.263 587.116 496.04 586.67C495.817 586.225 496.04 585.334 496.486 585.111C496.931 584.889 497.822 585.111 498.045 585.557C498.268 586.002 498.268 586.448 497.822 586.893C497.6 586.893 497.6 587.116 497.6 587.116ZM492.475 589.789C491.807 590.011 491.139 589.789 490.916 589.343C490.693 588.675 490.916 588.007 491.361 587.784C491.807 587.561 492.698 587.784 492.921 588.23C493.144 588.675 493.144 589.121 492.698 589.566L492.475 589.789ZM487.351 592.239C486.683 592.461 486.014 592.239 485.791 591.793C485.569 591.125 485.791 590.457 486.237 590.234C486.905 590.011 487.574 590.234 487.797 590.68C488.019 591.125 487.797 591.571 487.574 592.016C487.574 592.016 487.574 592.239 487.351 592.239ZM482.227 594.689C481.558 594.911 480.89 594.689 480.667 594.021C480.444 593.352 480.667 592.684 481.336 592.461C482.004 592.239 482.672 592.461 482.895 593.13C483.118 593.575 482.895 594.021 482.672 594.466C482.45 594.466 482.227 594.466 482.227 594.689ZM477.103 596.916C476.434 597.139 475.766 596.916 475.543 596.248C475.32 595.58 475.543 594.911 476.211 594.689C476.88 594.466 477.548 594.689 477.771 595.357C477.994 595.802 477.771 596.248 477.548 596.693C477.325 596.693 477.103 596.693 477.103 596.916ZM471.755 598.921C471.087 599.143 470.419 598.921 470.196 598.252C469.973 597.584 470.196 596.916 470.864 596.693C471.533 596.471 472.201 596.693 472.424 597.362C472.647 597.807 472.424 598.252 472.201 598.475C471.978 598.921 471.978 598.921 471.755 598.921ZM466.408 600.925C465.74 601.148 465.072 600.925 465.072 600.257C464.849 599.589 465.072 598.921 465.74 598.921C466.408 598.698 467.077 598.921 467.3 599.589C467.522 600.034 467.3 600.48 467.077 600.702C466.631 600.702 466.631 600.925 466.408 600.925ZM461.061 602.707C460.393 602.93 459.725 602.484 459.725 602.039C459.502 601.371 459.947 600.702 460.393 600.702C461.061 600.48 461.73 600.925 461.73 601.371C461.953 601.816 461.73 602.262 461.507 602.484C461.284 602.707 461.284 602.707 461.061 602.707ZM455.714 604.489C455.046 604.712 454.378 604.266 454.378 603.821C454.155 603.153 454.6 602.484 455.046 602.484C455.714 602.262 456.16 602.707 456.383 603.152C456.606 603.598 456.383 604.043 456.16 604.266C455.937 604.266 455.714 604.489 455.714 604.489ZM450.145 606.048C449.476 606.271 449.031 605.825 448.808 605.157C448.585 604.489 449.031 604.043 449.699 603.821C450.367 603.598 450.813 604.043 451.036 604.712C451.258 605.157 451.036 605.603 450.813 605.825C450.59 605.825 450.367 606.048 450.145 606.048ZM444.575 607.384C443.906 607.607 443.461 607.162 443.238 606.493C443.015 605.825 443.461 605.38 444.129 605.157C444.797 604.934 445.243 605.38 445.466 606.048C445.466 606.493 445.466 606.939 445.243 607.162C445.02 607.162 444.797 607.384 444.575 607.384ZM439.005 608.721C438.336 608.943 437.891 608.498 437.668 607.83C437.445 607.162 437.891 606.716 438.559 606.493C439.228 606.271 439.673 606.716 439.896 607.384C439.896 607.83 439.896 608.053 439.673 608.498C439.45 608.498 439.228 608.721 439.005 608.721ZM433.658 609.834C432.989 610.057 432.544 609.612 432.321 608.943C432.098 608.275 432.544 607.83 433.212 607.607C433.881 607.384 434.326 607.83 434.549 608.498C434.549 608.944 434.549 609.166 434.326 609.612C433.881 609.612 433.881 609.834 433.658 609.834ZM427.865 610.725C427.197 610.725 426.751 610.503 426.528 609.834C426.528 609.166 426.751 608.721 427.42 608.498C428.088 608.498 428.534 608.721 428.756 609.389C428.756 609.834 428.756 610.057 428.534 610.28C428.311 610.725 428.088 610.725 427.865 610.725ZM422.295 611.616C421.627 611.616 421.181 611.171 420.959 610.725C420.959 610.057 421.404 609.612 421.85 609.389C422.518 609.389 422.964 609.834 423.186 610.28C423.186 610.725 423.186 610.948 422.964 611.171C422.741 611.616 422.518 611.616 422.295 611.616ZM416.725 612.284C416.057 612.284 415.611 611.839 415.389 611.393C415.389 610.725 415.834 610.28 416.28 610.057C416.948 610.057 417.394 610.503 417.617 610.948C417.617 611.393 417.617 611.616 417.394 611.839C417.171 612.284 416.948 612.284 416.725 612.284ZM411.156 612.953C410.487 612.953 410.042 612.507 410.042 611.839C410.042 611.171 410.487 610.725 411.156 610.725C411.824 610.725 412.27 611.171 412.492 611.839C412.492 612.284 412.492 612.507 412.27 612.73C411.601 612.73 411.378 612.953 411.156 612.953ZM405.363 613.398C404.695 613.398 404.249 612.953 404.249 612.284C404.249 611.616 404.695 611.171 405.363 611.171C406.031 611.171 406.477 611.616 406.477 612.284C406.477 612.73 406.477 612.953 406.254 613.175C406.031 613.175 405.586 613.398 405.363 613.398Z" fill="#B3B3B3"/>
<path opacity="0.55" d="M391.773 612.953C371.053 612.953 350.333 610.057 330.505 604.489L330.727 604.043C350.556 609.612 371.276 612.507 391.773 612.507V612.953Z" fill="#B3B3B3"/>
<path opacity="0.55" d="M306.888 596.47C303.101 594.911 299.536 593.352 295.971 591.57L296.194 591.125C299.759 592.907 303.546 594.466 307.111 596.025L306.888 596.47Z" fill="#B3B3B3"/>
<path opacity="0.55" d="M295.972 591.57C273.024 580.657 252.081 565.956 233.812 547.693C222.673 536.556 212.647 524.306 204.181 511.165L204.626 510.942C213.092 524.083 223.118 536.333 234.258 547.47C252.527 565.734 273.247 580.434 296.194 591.348L295.972 591.57Z" fill="#B3B3B3"/>
<path opacity="0.55" d="M195.046 494.46L194.601 494.683C179.451 466.396 170.539 434.323 168.757 402.027C166.974 369.954 172.321 337.435 184.129 307.59L184.575 307.812C160.513 368.84 164.301 436.773 195.046 494.46Z" fill="#FF7F08"/>
<path opacity="0.55" d="M251.859 529.651L244.729 536.779C244.284 536.333 243.615 535.665 243.17 535.22L250.522 528.092C250.745 528.538 251.413 528.983 251.859 529.651ZM247.18 524.751L239.828 531.656C239.382 530.988 238.714 530.542 238.268 529.874L245.843 522.97C246.289 523.638 246.735 524.306 247.18 524.751ZM242.724 519.851L235.149 526.533C234.704 525.865 234.035 525.42 233.59 524.751L241.387 518.07C241.833 518.738 242.279 519.406 242.724 519.851ZM238.491 514.951L230.693 521.41C230.248 520.742 229.802 520.297 229.134 519.629L237.154 513.169C237.6 513.615 238.046 514.283 238.491 514.951ZM234.481 509.606L226.46 515.842C226.015 515.174 225.569 514.506 225.124 514.06L233.367 508.047C233.59 508.492 234.035 509.16 234.481 509.606ZM230.471 504.26L222.227 510.051C221.782 509.383 221.336 508.715 220.89 508.047L229.134 502.256C229.579 503.147 230.025 503.815 230.471 504.26ZM226.683 498.915L218.217 504.483C217.771 503.815 217.326 503.147 216.88 502.478L225.346 496.91C226.015 497.578 226.46 498.247 226.683 498.915ZM223.118 493.346L214.429 498.692C213.984 498.024 213.538 497.356 213.315 496.687L222.004 491.565C222.45 492.01 222.896 492.678 223.118 493.346ZM219.776 487.555L210.865 492.678C210.419 492.01 210.196 491.342 209.751 490.674L218.663 485.774C219.108 486.219 219.554 486.887 219.776 487.555ZM216.657 481.765L207.746 486.442C207.3 485.774 207.077 485.105 206.632 484.437L215.766 479.76C215.989 480.428 216.212 481.096 216.657 481.765ZM213.538 475.974L204.404 480.428C203.958 479.76 203.735 479.092 203.513 478.424L212.647 474.192C213.093 474.637 213.315 475.305 213.538 475.974ZM210.865 469.96L201.507 473.969C201.285 473.301 200.839 472.633 200.616 471.742L209.974 467.733C210.196 468.623 210.642 469.292 210.865 469.96ZM208.191 463.723L198.834 467.51C198.611 466.842 198.166 466.173 197.943 465.283L207.523 461.496C207.746 462.387 207.968 463.055 208.191 463.723ZM205.963 457.487L196.383 461.051C196.16 460.382 195.938 459.492 195.492 458.823L205.072 455.482C205.518 456.151 205.74 456.819 205.963 457.487ZM203.735 451.251L194.155 454.369C193.932 453.701 193.71 452.81 193.487 452.141L203.29 449.023C203.29 449.914 203.513 450.582 203.735 451.251ZM201.73 445.014L191.927 447.91C191.705 447.241 191.482 446.351 191.259 445.682L201.062 443.01C201.507 443.678 201.507 444.346 201.73 445.014ZM200.171 438.555L190.368 441.005C190.145 440.337 189.922 439.446 189.922 438.778L199.725 436.328C199.725 437.219 199.948 437.887 200.171 438.555ZM198.611 432.096L188.585 434.323C188.363 433.655 188.363 432.764 188.14 432.096L198.166 430.091C198.166 430.759 198.388 431.428 198.611 432.096ZM197.274 425.637L187.249 427.418C187.026 426.75 187.026 425.859 186.803 425.191L196.829 423.409C197.052 424.3 197.052 424.968 197.274 425.637ZM196.16 419.177L186.135 420.737C185.912 420.068 185.912 419.177 185.912 418.509L195.938 417.173C195.938 417.841 196.16 418.509 196.16 419.177ZM195.269 412.718L185.243 413.832C185.243 413.164 185.021 412.273 185.021 411.605L195.046 410.491C195.046 411.159 195.269 411.827 195.269 412.718ZM194.601 406.036L184.352 406.927C184.352 406.259 184.13 405.368 184.13 404.7L194.378 404.032C194.601 404.7 194.601 405.368 194.601 406.036ZM194.155 399.355L183.907 399.8C183.907 399.132 183.907 398.241 183.907 397.573L194.155 397.127C194.155 398.018 194.155 398.686 194.155 399.355ZM194.155 392.895L183.907 393.118C183.907 392.45 183.907 391.559 183.907 390.891H194.155C193.932 391.336 193.932 392.227 194.155 392.895ZM194.155 386.213L183.907 385.991C183.907 385.323 183.907 384.432 183.907 383.763L194.155 383.986C194.155 384.877 194.155 385.545 194.155 386.213ZM194.378 379.532L184.13 379.086C184.13 378.418 184.13 377.527 184.352 376.859L194.601 377.527C194.378 378.195 194.378 378.863 194.378 379.532ZM194.824 373.072L184.798 372.181C184.798 371.513 185.021 370.622 185.021 369.954L195.046 370.845C194.824 371.513 194.824 372.404 194.824 373.072ZM195.492 366.39L185.466 365.277C185.466 364.609 185.689 363.718 185.689 363.05L195.715 364.386C195.715 365.054 195.492 365.722 195.492 366.39ZM196.383 359.931L186.357 358.372C186.58 357.704 186.58 356.813 186.803 356.145L196.829 357.704C196.606 358.372 196.383 359.263 196.383 359.931Z" fill="#B3B3B3"/>
<path opacity="0.55" d="M323.598 586.225C312.013 582.216 300.65 577.093 290.179 571.302L295.081 562.393C305.329 568.184 316.023 572.861 326.94 576.648L323.598 586.225Z" fill="#B3B3B3"/>
<path opacity="0.55" d="M341.422 591.347C335.406 589.788 329.391 588.006 323.598 586.002L326.94 576.424C332.51 578.429 338.08 579.988 343.872 581.324L341.422 591.347Z" fill="#B3B3B3"/>
<path opacity="0.55" d="M395.115 597.584C377.069 597.807 358.8 595.802 341.199 591.571L343.65 581.771C360.359 586.002 377.514 587.784 394.892 587.561L395.115 597.584Z" fill="#B3B3B3"/>
<path opacity="0.55" d="M538.148 536.779C510.745 564.174 476.435 583.329 439.005 592.016L436.777 582.216C472.424 573.752 504.952 555.711 531.019 529.651C541.713 518.96 551.293 506.933 559.091 494.237L567.78 499.583C559.314 512.947 549.511 525.419 538.148 536.779Z" fill="#B3B3B3"/>
<path opacity="0.55" d="M579.365 477.978L570.23 473.746C587.386 436.996 592.733 396.459 585.826 356.367L595.852 354.586C603.204 396.682 597.411 439.446 579.365 477.978Z" fill="#B3B3B3"/>
<path opacity="0.55" d="M505.843 229.412C427.197 173.284 320.256 182.193 251.858 250.571L244.729 243.444C279.708 208.475 326.049 187.093 375.063 183.307C423.632 179.52 472.201 192.884 511.636 221.171L505.843 229.412Z" fill="#B3B3B3"/>
<path opacity="0.55" d="M520.325 518.961C485.792 553.484 440.119 572.416 391.327 572.416C342.535 572.416 296.863 553.484 262.33 518.961C227.797 484.438 208.859 438.778 208.859 390C208.859 341.222 227.797 295.563 262.33 261.039C296.863 226.516 342.535 207.584 391.327 207.584C440.119 207.584 485.792 226.516 520.325 261.039C554.858 295.563 573.795 341.222 573.795 390C573.795 438.778 554.858 484.66 520.325 518.961ZM262.775 261.485C191.927 332.313 191.927 447.687 262.775 518.738C333.624 589.566 449.031 589.566 520.102 518.738C591.173 447.91 590.95 332.536 520.102 261.485C449.031 190.657 333.624 190.657 262.775 261.485Z" fill="#B3B3B3"/>
</g>
</g>
<g opacity="0.55">
<path opacity="0.55" d="M668.037 307.812C696.777 405.813 672.493 516.065 595.183 593.352C519.656 668.857 412.493 693.803 316.246 667.966V730.776C428.757 755.277 550.847 723.872 638.405 636.561C727.523 547.47 758.491 422.073 731.31 307.812H668.037Z" fill="#B3B3B3"/>
<path opacity="0.55" d="M215.32 160.588C328.5 73.5008 491.584 81.7418 595.183 185.311C608.997 199.12 621.027 214.043 631.499 229.634H702.347C686.083 198.007 664.918 168.606 638.405 142.102C510.745 14.4774 309.117 6.23636 171.876 116.933L215.32 160.588Z" fill="#B3B3B3"/>
<path opacity="0.55" d="M238.046 633.889C219.999 622.53 202.844 609.166 187.026 593.352C84.0953 490.451 75.1835 329.195 160.291 216.048L116.846 172.615C8.12269 309.817 17.0344 509.829 143.804 636.562C172.099 664.849 203.958 687.122 238.046 703.604V633.889Z" fill="#B3B3B3"/>
</g>
</g>
<path d="M392.862 704.518C218.414 704.518 76.4949 562.639 76.4949 388.241C76.4949 213.844 218.414 71.9646 392.862 71.9646C567.309 71.9646 709.228 213.844 709.228 388.241C709.228 562.639 567.309 704.518 392.862 704.518ZM392.862 74.1919C219.751 74.1919 78.7228 215.18 78.7228 388.241C78.7228 561.302 219.751 702.29 392.862 702.29C565.972 702.29 707 561.302 707 388.241C707 215.18 565.972 74.1919 392.862 74.1919Z" fill="url(#paint0_linear)"/>
<defs>
<linearGradient id="paint0_linear" x1="304.373" y1="106.989" x2="538.184" y2="850.943" gradientUnits="userSpaceOnUse">
<stop stop-color="white"/>
<stop offset="0.0854736" stop-color="#F7F7F7" stop-opacity="0.9145"/>
<stop offset="0.2193" stop-color="#E1E1E1" stop-opacity="0.7807"/>
<stop offset="0.3848" stop-color="#BCBCBC" stop-opacity="0.6152"/>
<stop offset="0.5755" stop-color="#898989" stop-opacity="0.4245"/>
<stop offset="0.7877" stop-color="#484848" stop-opacity="0.2123"/>
<stop offset="1" stop-opacity="0"/>
</linearGradient>
</defs>
</svg>
