<svg width="291" height="291" viewBox="0 0 291 291" fill="none" xmlns="http://www.w3.org/2000/svg">
<g opacity="0.1">
<g clip-path="url(#clip0)">
<path d="M204.88 74.7328C202.96 73.3718 200.3 73.8225 198.937 75.743C197.576 77.6634 198.027 80.3231 199.947 81.6863C204.07 84.6125 207.957 87.9805 211.501 91.6992C212.5 92.7471 214.402 96.1351 211.316 99.3654C208.228 102.598 204.649 100.231 203.648 99.1811C190.813 85.7159 173.536 78.2984 154.996 78.2984C137.303 78.2984 120.523 85.4761 106.467 99.0568C102.48 102.907 98.8235 99.5186 98.6747 99.3654C95.6686 96.2838 97.4892 92.7471 98.4904 91.6992C113.39 76.0627 133.458 67.4507 154.996 67.4507C165.293 67.4507 175.257 69.3978 184.61 73.2342C186.788 74.1289 189.279 73.0877 190.172 70.9097C191.066 68.7317 190.025 66.2407 187.847 65.3482C177.461 61.0855 166.407 58.9253 154.996 58.9253C131.102 58.9253 108.843 68.4764 92.3184 85.818C89.7475 88.5155 85.0274 97.4272 92.7935 105.537C100.56 113.648 109.176 108.295 112.391 105.187C124.824 93.1734 139.557 86.8238 154.996 86.8238C171.181 86.8238 186.269 93.2999 197.478 105.062C200.047 107.76 209.329 113.395 217.198 105.537C225.066 97.6781 220.242 88.5133 217.673 85.8158C213.752 81.7019 209.449 77.9742 204.88 74.7328Z" fill="black"/>
<path d="M154.996 98.333C128.967 98.333 107.793 119.509 107.793 145.538C107.793 171.565 128.967 192.741 154.996 192.741C181.023 192.741 202.198 171.565 202.198 145.538C202.198 119.509 181.023 98.333 154.996 98.333ZM154.996 184.215C133.669 184.215 116.316 166.865 116.316 145.536C116.316 124.209 133.669 106.858 154.996 106.858C176.322 106.858 193.673 124.209 193.673 145.536C193.673 166.865 176.322 184.215 154.996 184.215Z" fill="black"/>
<path d="M154.996 122.975C142.563 122.975 132.448 133.09 132.448 145.522C132.448 157.955 142.563 168.07 154.996 168.07C167.428 168.07 177.544 157.955 177.544 145.522C177.544 133.09 167.428 122.975 154.996 122.975ZM154.996 159.545C147.263 159.545 140.973 153.255 140.973 145.522C140.973 137.792 147.263 131.5 154.996 131.5C162.728 131.5 169.018 137.792 169.018 145.522C169.018 153.255 162.728 159.545 154.996 159.545Z" fill="black"/>
<path d="M110.508 187.878C102.147 187.878 95.3423 194.683 95.3423 203.044C95.3423 211.405 102.147 218.208 110.508 218.208C118.869 218.208 125.672 211.405 125.672 203.044C125.672 194.681 118.869 187.878 110.508 187.878ZM110.508 209.685C106.847 209.685 103.868 206.705 103.868 203.044C103.868 199.383 106.847 196.404 110.508 196.404C114.169 196.404 117.146 199.383 117.146 203.044C117.146 206.705 114.169 209.685 110.508 209.685Z" fill="black"/>
<path d="M141.87 201.008C133.509 201.008 126.707 207.811 126.707 216.172C126.707 224.535 133.509 231.338 141.87 231.338C150.231 231.338 157.036 224.535 157.036 216.172C157.036 207.811 150.231 201.008 141.87 201.008ZM141.87 222.812C138.209 222.812 135.232 219.833 135.232 216.172C135.232 212.511 138.209 209.531 141.87 209.531C145.531 209.531 148.511 212.511 148.511 216.172C148.511 219.833 145.531 222.812 141.87 222.812Z" fill="black"/>
<path d="M272.171 174.555C276.174 170.426 278.321 164.76 278.065 159.014C277.986 157.176 278.865 155.402 280.421 154.272C288.347 148.511 292.261 138.935 290.638 129.28C289.375 121.773 284.879 115.262 278.305 111.412C276.875 110.577 276.234 108.828 276.78 107.251C279.224 100.178 278.174 92.2607 273.974 86.0754C270.255 80.6049 264.4 76.7685 257.878 75.7672C247.854 74.2286 240.418 80.1187 240.267 80.2364C220.61 54.6247 189.701 38.0801 154.996 38.0801C120.363 38.0801 89.5122 54.5558 69.8505 80.0743H15.5255C6.96462 80.0743 0 87.0389 0 95.5998C0 104.161 6.96462 111.125 15.5255 111.125H53.1993C51.6319 115.75 50.3797 120.519 49.4495 125.401H24.5904C16.0295 125.401 9.06489 132.366 9.06489 140.927C9.06489 149.487 16.0295 156.452 24.5904 156.452H33.5488C35.9021 156.452 37.8115 154.545 37.8115 152.189C37.8115 149.836 35.9021 147.927 33.5488 147.927H24.5904C20.7296 147.927 17.5903 144.787 17.5903 140.927C17.5903 137.066 20.7296 133.926 24.5904 133.926H48.1796C47.7688 137.736 47.5535 141.604 47.5535 145.522C47.5535 204.767 95.7508 252.967 154.996 252.967C201.861 252.967 241.808 222.801 256.459 180.872C262.94 180.683 268.184 178.667 272.171 174.555ZM256.483 84.1794C260.715 84.801 264.509 87.3164 266.923 90.8687C269.66 94.8983 270.317 99.8559 268.721 104.467C266.854 109.873 269.072 115.888 273.996 118.772C278.387 121.34 281.389 125.687 282.23 130.694C283.314 137.139 280.701 143.531 275.408 147.376C271.532 150.193 269.34 154.685 269.549 159.392C269.702 162.855 268.459 166.134 266.048 168.623C264.143 170.588 261.701 171.822 259.079 172.222C261.272 163.681 262.438 154.736 262.438 145.524C262.438 124.04 256.097 104.014 245.194 87.2077C245.409 87.03 250.442 83.2913 256.483 84.1794ZM15.5255 102.6C11.6647 102.6 8.52539 99.4607 8.52539 95.5998C8.52539 91.739 11.6647 88.5997 15.5255 88.5997H63.9116C61.1142 93.0578 58.6365 97.7356 56.5074 102.6H15.5255ZM154.996 244.441C100.451 244.441 56.0767 200.067 56.0767 145.522C56.0767 90.9797 100.451 46.6055 154.996 46.6055C209.538 46.6055 253.912 90.9797 253.912 145.524C253.912 200.067 209.538 244.441 154.996 244.441Z" fill="black"/>
<path d="M268.528 190.789C258.881 190.789 251.033 198.637 251.033 208.284C251.033 217.933 258.881 225.781 268.528 225.781C278.174 225.781 286.022 217.933 286.022 208.284C286.022 198.637 278.174 190.789 268.528 190.789ZM268.528 217.256C263.581 217.256 259.558 213.23 259.558 208.284C259.558 203.337 263.581 199.314 268.528 199.314C273.474 199.314 277.497 203.337 277.497 208.284C277.497 213.23 273.474 217.256 268.528 217.256Z" fill="black"/>
</g>
</g>
<defs>
<clipPath id="clip0">
<rect width="291" height="291" fill="white"/>
</clipPath>
</defs>
</svg>
