<svg width="30" height="30" viewBox="0 0 30 30" fill="none" xmlns="http://www.w3.org/2000/svg">
<path d="M22.3242 0H7.67578C7.02855 0 6.50391 0.524648 6.50391 1.17188C6.50391 1.8191 7.02855 2.34375 7.67578 2.34375H22.3242C22.9714 2.34375 23.4961 1.8191 23.4961 1.17188C23.4961 0.524648 22.9714 0 22.3242 0Z" fill="#FF7F08"/>
<path d="M22.3242 27.6562H7.67578C7.02855 27.6562 6.50391 28.1809 6.50391 28.8281C6.50391 29.4754 7.02855 30 7.67578 30H22.3242C22.9714 30 23.4961 29.4754 23.4961 28.8281C23.4961 28.1809 22.9714 27.6562 22.3242 27.6562Z" fill="#FF7F08"/>
<path d="M21.1641 7.02633L17.5516 3.38402C16.8862 2.71318 16.0008 2.34375 15.0586 2.34375C14.1163 2.34375 13.231 2.71318 12.5656 3.38402L8.95313 7.02633C8.49739 7.48582 8.50037 8.22785 8.95992 8.68359C9.41953 9.13939 10.1614 9.13629 10.6172 8.6768L13.8281 5.43943V20.6836C13.8281 21.3308 14.3528 21.8555 15 21.8555C15.6472 21.8555 16.1719 21.3308 16.1719 20.6836V5.32125L19.5 8.6768C19.7291 8.90783 20.0305 9.0235 20.3321 9.02344C20.6303 9.02344 20.9288 8.91023 21.1573 8.68359C21.6168 8.22785 21.6199 7.48582 21.1641 7.02633Z" fill="#FF7F08"/>
<path d="M21.1573 21.3165C20.6977 20.8608 19.9558 20.8638 19.5 21.3233L15.8875 24.9656C15.6655 25.1894 15.3712 25.3126 15.0586 25.3126C14.746 25.3126 14.4517 25.1894 14.2297 24.9656L10.6172 21.3233C10.1615 20.8639 9.41955 20.8607 8.95995 21.3165C8.5004 21.7723 8.49735 22.5143 8.95315 22.9738L12.5656 26.6161C13.231 27.2869 14.1164 27.6563 15.0586 27.6563C16.0009 27.6563 16.8862 27.2869 17.5516 26.6161L21.1641 22.9738C21.6198 22.5143 21.6168 21.7723 21.1573 21.3165Z" fill="#FF7F08"/>
</svg>
