<svg width="247" height="247" viewBox="0 0 247 247" fill="none" xmlns="http://www.w3.org/2000/svg">
<g opacity="0.1">
<path d="M193.941 74.2622L188.453 68.8359C191.345 65.9275 192.969 61.9925 192.969 57.8907C192.969 53.789 191.345 49.854 188.453 46.9456L193.941 41.5193C198.263 45.8722 200.688 51.7571 200.688 57.8907C200.688 64.0244 198.263 69.9093 193.941 74.2622Z" fill="black"/>
<path d="M215.882 95.9865L210.398 90.5525C219.011 81.8639 223.843 70.1248 223.843 57.8906C223.843 45.6563 219.011 33.9172 210.398 25.2287L215.882 19.7947C225.927 29.9293 231.563 43.6212 231.563 57.8906C231.563 72.16 225.927 85.8519 215.882 95.9865Z" fill="black"/>
<path d="M204.933 85.1263L199.445 79.6923C205.2 73.8943 208.43 66.0562 208.43 57.8868C208.43 49.7174 205.2 41.8793 199.445 36.0813L204.933 30.655C212.115 37.9002 216.145 47.6889 216.145 57.8906C216.145 68.0923 212.115 77.8811 204.933 85.1263Z" fill="black"/>
<path d="M53.0585 74.2622C48.7371 69.9093 46.312 64.0244 46.312 57.8907C46.312 51.7571 48.7371 45.8722 53.0585 41.5193L58.5465 46.9456C55.6543 49.854 54.0308 53.789 54.0308 57.8907C54.0308 61.9925 55.6543 65.9275 58.5465 68.8359L53.0585 74.2622Z" fill="black"/>
<path d="M31.1143 95.9865C21.0719 85.8504 15.438 72.159 15.438 57.8906C15.438 43.6221 21.0719 29.9308 31.1143 19.7947L36.6023 25.2287C27.9891 33.9172 23.1566 45.6563 23.1566 57.8906C23.1566 70.1248 27.9891 81.8639 36.6023 90.5525L31.1143 95.9865Z" fill="black"/>
<path d="M42.0865 85.1263C34.9044 77.8811 30.8748 68.0923 30.8748 57.8906C30.8748 47.6889 34.9044 37.9002 42.0865 30.655L47.5745 36.089C41.8192 41.887 38.5895 49.7251 38.5895 57.8945C38.5895 66.0639 41.8192 73.902 47.5745 79.7L42.0865 85.1263Z" fill="black"/>
<path d="M192.969 92.625H189.109C184.92 92.6392 180.852 94.0306 177.531 96.5847V27.0156C177.525 21.8997 175.49 16.995 171.873 13.3774C168.255 9.7599 163.35 7.72488 158.234 7.71875H88.7657C83.6498 7.72488 78.7451 9.7599 75.1276 13.3774C71.51 16.995 69.475 21.8997 69.4689 27.0156V84.2424C68.4013 84.2569 67.3391 84.3968 66.3042 84.6593C63.7408 85.3497 61.4377 86.7802 59.6827 88.772C57.9276 90.7638 56.7984 93.2286 56.436 95.8585C56.0737 98.4884 56.4943 101.167 57.6453 103.559C58.7964 105.951 60.6268 107.951 62.9079 109.309C60.8852 110.49 59.2072 112.181 58.041 114.212C56.8748 116.243 56.2612 118.545 56.2612 120.887C56.2612 123.23 56.8748 125.531 58.041 127.562C59.2072 129.594 60.8852 131.284 62.9079 132.465C60.8852 133.646 59.2072 135.337 58.041 137.368C56.8748 139.4 56.2612 141.701 56.2612 144.043C56.2612 146.386 56.8748 148.687 58.041 150.719C59.2072 152.75 60.8852 154.44 62.9079 155.622C60.8723 156.81 59.1859 158.515 58.0183 160.562C56.8507 162.61 56.2431 164.93 56.2568 167.287C56.2705 169.644 56.9049 171.956 58.0963 173.991C59.2876 176.025 60.9937 177.709 63.043 178.874L69.4226 182.56L69.4689 191.722C69.4909 195.875 70.8436 199.911 73.3282 203.239L78.7314 210.463C80.23 212.47 81.042 214.906 81.047 217.41V235.422C81.047 236.445 81.4536 237.427 82.1774 238.151C82.9011 238.875 83.8828 239.281 84.9064 239.281C85.9299 239.281 86.9116 238.875 87.6354 238.151C88.3591 237.427 88.7657 236.445 88.7657 235.422V217.41C88.758 213.236 87.4046 209.176 84.9064 205.832L79.5032 198.607C78.0117 196.61 77.2 194.188 77.1876 191.695V187.021L79.785 188.523C81.8299 189.709 84.1516 190.335 86.5157 190.337C87.7028 190.336 88.8847 190.18 90.0316 189.874C92.792 189.118 95.2376 187.498 97.0094 185.25H158.234C163.35 185.244 168.255 183.209 171.873 179.591C175.49 175.974 177.525 171.069 177.531 165.953V111.922C177.531 108.851 178.751 105.906 180.923 103.735C183.094 101.564 186.039 100.344 189.109 100.344H192.969V162.599C192.989 169.067 191.522 175.453 188.68 181.264C185.837 187.074 181.697 192.152 176.578 196.106L165.683 204.597C163.358 206.394 161.477 208.701 160.185 211.34C158.894 213.979 158.226 216.88 158.234 219.818V235.422C158.234 236.445 158.641 237.427 159.365 238.151C160.089 238.875 161.07 239.281 162.094 239.281C163.117 239.281 164.099 238.875 164.823 238.151C165.547 237.427 165.953 236.445 165.953 235.422V219.818C165.959 218.056 166.364 216.317 167.138 214.734C167.912 213.15 169.035 211.763 170.422 210.676L181.317 202.185C187.364 197.513 192.256 191.513 195.614 184.649C198.973 177.785 200.709 170.241 200.688 162.599V100.344C200.688 98.2966 199.874 96.3333 198.427 94.8858C196.979 93.4382 195.016 92.625 192.969 92.625ZM91.5213 179.72C90.7536 181.049 89.4892 182.019 88.0062 182.417C86.5232 182.814 84.9431 182.606 83.6135 181.838L66.9024 172.19C65.796 171.553 64.9312 170.568 64.4424 169.389C63.9537 168.21 63.8685 166.902 64.2 165.669C64.5315 164.436 65.2612 163.348 66.2755 162.573C67.2899 161.798 68.5319 161.38 69.8085 161.384C70.8208 161.381 71.8156 161.648 72.6914 162.156L89.4025 171.804C90.0619 172.184 90.6398 172.69 91.1033 173.294C91.5667 173.898 91.9066 174.587 92.1034 175.322C92.3002 176.058 92.3501 176.824 92.2502 177.579C92.1503 178.333 91.9026 179.061 91.5213 179.72ZM91.5213 156.563C90.7536 157.893 89.4892 158.863 88.0062 159.26C86.5232 159.658 84.9431 159.45 83.6135 158.682L66.9024 149.034C65.796 148.397 64.9312 147.412 64.4424 146.233C63.9537 145.054 63.8685 143.746 64.2 142.513C64.5315 141.28 65.2612 140.192 66.2755 139.417C67.2899 138.641 68.5319 138.223 69.8085 138.227C70.8208 138.225 71.8156 138.492 72.6914 138.999L89.4025 148.648C90.0619 149.028 90.6398 149.534 91.1033 150.138C91.5667 150.742 91.9066 151.431 92.1034 152.166C92.3002 152.901 92.3501 153.668 92.2502 154.423C92.1503 155.177 91.9026 155.905 91.5213 156.563ZM91.5213 133.407C90.7536 134.737 89.4892 135.707 88.0062 136.104C86.5232 136.501 84.9431 136.293 83.6135 135.526L66.9024 125.877C65.796 125.241 64.9312 124.256 64.4424 123.077C63.9537 121.897 63.8685 120.589 64.2 119.357C64.5315 118.124 65.2612 117.035 66.2755 116.26C67.2899 115.485 68.5319 115.067 69.8085 115.071C70.8208 115.069 71.8156 115.335 72.6914 115.843L89.4025 125.491C90.0619 125.872 90.6398 126.378 91.1033 126.982C91.5667 127.585 91.9066 128.275 92.1034 129.01C92.3002 129.745 92.3501 130.512 92.2502 131.266C92.1503 132.021 91.9026 132.748 91.5213 133.407ZM91.5213 110.251C90.7536 111.58 89.4892 112.551 88.0062 112.948C86.5232 113.345 84.9431 113.137 83.6135 112.37L66.9024 102.721C65.796 102.084 64.9312 101.1 64.4424 99.9203C63.9537 98.741 63.8685 97.4332 64.2 96.2005C64.5315 94.9677 65.2612 93.8791 66.2755 93.104C67.2899 92.329 68.5319 91.9109 69.8085 91.9149C70.8208 91.9127 71.8156 92.179 72.6914 92.6868L89.4025 102.335C90.0619 102.715 90.6398 103.222 91.1033 103.825C91.5667 104.429 91.9066 105.118 92.1034 105.854C92.3002 106.589 92.3501 107.356 92.2502 108.11C92.1503 108.865 91.9026 109.592 91.5213 110.251ZM88.7657 93.0611V38.5938H158.234V146.656H97.9742C96.8496 144.773 95.2773 143.197 93.397 142.067C95.4197 140.886 97.0977 139.196 98.2639 137.165C99.4301 135.133 100.044 132.832 100.044 130.489C100.044 128.147 99.4301 125.846 98.2639 123.814C97.0977 121.783 95.4197 120.092 93.397 118.911C95.4326 117.722 97.119 116.018 98.2867 113.97C99.4543 111.922 100.062 109.603 100.048 107.246C100.034 104.889 99.4 102.576 98.2086 100.542C97.0173 98.5081 95.3112 96.8236 93.2619 95.6585L88.7657 93.0611ZM169.813 165.953C169.813 169.024 168.593 171.969 166.421 174.14C164.25 176.311 161.305 177.531 158.234 177.531H99.9579C100.091 175.076 99.5498 172.632 98.3934 170.463C97.2369 168.293 95.5091 166.482 93.397 165.224C95.3231 164.123 96.9365 162.549 98.0846 160.65C99.2326 158.752 99.8774 156.592 99.9579 154.375H162.094C163.117 154.375 164.099 153.968 164.823 153.245C165.547 152.521 165.953 151.539 165.953 150.516V34.7344C165.953 33.7108 165.547 32.7292 164.823 32.0054C164.099 31.2816 163.117 30.875 162.094 30.875H84.9064C83.8828 30.875 82.9011 31.2816 82.1774 32.0054C81.4536 32.7292 81.047 33.7108 81.047 34.7344V88.6074L77.1876 86.3767V27.0156C77.1876 23.9449 78.4074 21 80.5788 18.8287C82.7501 16.6573 85.695 15.4375 88.7657 15.4375H158.234C161.305 15.4375 164.25 16.6573 166.421 18.8287C168.593 21 169.813 23.9449 169.813 27.0156V165.953Z" fill="black"/>
<path d="M123.5 177.531C121.21 177.531 118.971 176.852 117.067 175.58C115.163 174.308 113.679 172.5 112.803 170.384C111.927 168.268 111.697 165.94 112.144 163.694C112.591 161.448 113.694 159.385 115.313 157.766C116.932 156.147 118.995 155.044 121.241 154.597C123.487 154.151 125.815 154.38 127.931 155.256C130.046 156.133 131.855 157.617 133.127 159.521C134.399 161.425 135.078 163.663 135.078 165.953C135.078 169.024 133.858 171.969 131.687 174.14C129.516 176.311 126.571 177.531 123.5 177.531ZM123.5 162.094C122.737 162.094 121.99 162.32 121.356 162.744C120.721 163.168 120.226 163.771 119.934 164.476C119.642 165.181 119.566 165.957 119.715 166.706C119.864 167.455 120.231 168.142 120.771 168.682C121.311 169.222 121.998 169.589 122.747 169.738C123.496 169.887 124.272 169.811 124.977 169.519C125.682 169.227 126.285 168.732 126.709 168.097C127.133 167.463 127.359 166.716 127.359 165.953C127.359 164.93 126.953 163.948 126.229 163.224C125.505 162.5 124.523 162.094 123.5 162.094Z" fill="black"/>
<path d="M127.359 27.0156H119.641C118.617 27.0156 117.635 26.609 116.912 25.8852C116.188 25.1615 115.781 24.1798 115.781 23.1562C115.781 22.1327 116.188 21.151 116.912 20.4273C117.635 19.7035 118.617 19.2969 119.641 19.2969H127.359C128.383 19.2969 129.365 19.7035 130.088 20.4273C130.812 21.151 131.219 22.1327 131.219 23.1562C131.219 24.1798 130.812 25.1615 130.088 25.8852C129.365 26.609 128.383 27.0156 127.359 27.0156Z" fill="black"/>
</g>
</svg>
