<svg width="29" height="29" viewBox="0 0 29 29" fill="none" xmlns="http://www.w3.org/2000/svg">
<g clip-path="url(#clip0)">
<path d="M28.4765 4.81113C28.1875 4.81113 27.9532 5.04545 27.9532 5.33448V27.9532H23.7683V26.7747H26.273C26.5621 26.7747 26.7964 26.5403 26.7964 26.2513V16.9974C26.7964 16.7083 26.5621 16.474 26.273 16.474H24.0366V15.3173H26.273C26.5621 15.3173 26.7964 15.083 26.7964 14.7939V2.705C26.7964 2.41596 26.5621 2.18164 26.273 2.18164H15.6016C15.3126 2.18164 15.0782 2.41596 15.0782 2.705V10.2862H13.9215V2.705C13.9215 2.41596 13.6871 2.18164 13.3981 2.18164H2.72673C2.43769 2.18164 2.20337 2.41596 2.20337 2.705V12.5516V14.7939C2.20337 15.0829 2.43769 15.3172 2.72673 15.3172H4.6192C4.90824 15.3172 5.14256 15.0829 5.14256 14.7939C5.14256 14.5048 4.90824 14.2705 4.6192 14.2705H3.25009V13.075H5.47097C7.32249 13.075 8.82879 11.5687 8.82879 9.71722V3.22836H12.8747V10.8096C12.8747 11.0986 13.1091 11.333 13.3981 11.333H15.6016C15.8906 11.333 16.125 11.0986 16.125 10.8096V3.22836H25.7496V4.57482H24.3675C24.0785 4.57482 23.8442 4.80914 23.8442 5.09818V12.2857C23.8442 12.5747 24.0785 12.8091 24.3675 12.8091H25.7496V14.2705H23.5132C23.2242 14.2705 22.9899 14.5048 22.9899 14.7939V16.9973C22.9899 17.2863 23.2242 17.5207 23.5132 17.5207H25.7496V25.7279H23.2449C22.9558 25.7279 22.7215 25.9622 22.7215 26.2512V28.4765C22.7215 28.7656 22.9558 28.9999 23.2449 28.9999H28.4763C28.7654 28.9999 28.9997 28.7656 28.9997 28.4765V5.33448C28.9999 5.04545 28.7656 4.81113 28.4765 4.81113ZM7.78213 9.71722H7.78207C7.78207 10.9915 6.74532 12.0283 5.47097 12.0283H3.25009V3.22836H3.63196V3.56667C3.63196 3.85571 3.86628 4.09003 4.15532 4.09003C4.44436 4.09003 4.67868 3.85571 4.67868 3.56667V3.22836H4.99269V4.61339C4.99269 4.90243 5.22702 5.13675 5.51605 5.13675C5.80509 5.13675 6.03941 4.90243 6.03941 4.61339V3.22836H6.35343V3.56667C6.35343 3.85571 6.58775 4.09003 6.87679 4.09003C7.16582 4.09003 7.40015 3.85571 7.40015 3.56667V3.22836H7.78207V9.71722H7.78213ZM25.7497 11.7624H24.8909V5.62154H25.7497V11.7624Z" fill="#FF7F08"/>
<path d="M28.4766 0.000976562H0.523359C0.234322 0.000976562 0 0.235299 0 0.524336V28.4776C0 28.7666 0.234322 29.0009 0.523359 29.0009H19.0295C19.3185 29.0009 19.5529 28.7666 19.5529 28.4776V26.2523C19.5529 25.9632 19.3185 25.7289 19.0295 25.7289H16.1251V20.6337C16.1251 20.3446 15.8908 20.1103 15.6017 20.1103H13.3982C13.1092 20.1103 12.8749 20.3446 12.8749 20.6337V25.7289H3.25021V24.5297H4.84164C5.33345 24.5297 5.76805 24.2818 6.02843 23.9048C6.4836 24.1406 7.00662 24.267 7.55603 24.267C9.18853 24.267 10.5167 23.1258 10.5167 21.7232C10.5167 21.3067 10.3975 20.8937 10.1721 20.5287C10.0202 20.2829 9.69767 20.2066 9.45179 20.3585C9.20586 20.5104 9.12968 20.8329 9.28159 21.0788C9.40659 21.2812 9.46992 21.498 9.46992 21.7232C9.46992 22.5486 8.6113 23.2202 7.55603 23.2202C7.08512 23.2202 6.6333 23.0823 6.28348 22.8373V20.6089C6.6333 20.364 7.08512 20.2261 7.55603 20.2261C7.86076 20.2261 8.15211 20.2811 8.42201 20.3895C8.69009 20.4972 8.99498 20.367 9.10266 20.0987C9.21033 19.8305 9.08017 19.5257 8.81192 19.4181C8.41742 19.2596 7.99494 19.1793 7.55592 19.1793C7.00645 19.1793 6.48331 19.3056 6.02798 19.5417C5.7676 19.1649 5.33317 18.9172 4.84147 18.9172H3.25021V17.5216H17.6952C17.9842 17.5216 18.2185 17.2872 18.2185 16.9982V14.7948C18.2185 14.5057 17.9842 14.2714 17.6952 14.2714H6.29408C6.00504 14.2714 5.77072 14.5057 5.77072 14.7948C5.77072 15.0838 6.00504 15.3181 6.29408 15.3181H17.1719V16.4748H2.72685C2.43781 16.4748 2.20349 16.7092 2.20349 16.9982V26.2522C2.20349 26.5412 2.43781 26.7756 2.72685 26.7756H13.3983C13.6873 26.7756 13.9216 26.5412 13.9216 26.2522V21.157H15.0784V26.2522C15.0784 26.5412 15.3127 26.7756 15.6018 26.7756H18.5062V27.9541H1.04672V1.0477H27.9533V3.47463C27.9533 3.76367 28.1876 3.99799 28.4766 3.99799C28.7657 3.99799 29 3.76367 29 3.47463V0.524336C29 0.235299 28.7657 0.000976562 28.4766 0.000976562ZM3.25021 19.9641H4.84164V19.9641C5.05959 19.9641 5.23682 20.1413 5.23682 20.3593V23.0879C5.23682 23.3057 5.05959 23.483 4.84164 23.483H3.25021V19.9641Z" fill="#FF7F08"/>
<path d="M21.8768 4.57483H18.0131C17.7241 4.57483 17.4897 4.80915 17.4897 5.09819V12.2857C17.4897 12.5747 17.7241 12.8091 18.0131 12.8091H21.8768C22.1659 12.8091 22.4002 12.5747 22.4002 12.2857V10.5761V6.80783V5.09819C22.4002 4.80915 22.1659 4.57483 21.8768 4.57483ZM21.3535 10.0527H20.3552V7.33119H21.3535V10.0527ZM21.3535 6.28447H19.8318C19.5428 6.28447 19.3085 6.51879 19.3085 6.80783V10.5761C19.3085 10.8651 19.5428 11.0994 19.8318 11.0994H21.3535V11.7624H18.5365V5.62155H21.3535V6.28447Z" fill="#FF7F08"/>
<path d="M7.41007 22.2459C7.69912 22.2459 7.93343 22.0116 7.93343 21.7226C7.93343 21.4335 7.69912 21.1992 7.41007 21.1992C7.12103 21.1992 6.88672 21.4335 6.88672 21.7226C6.88672 22.0116 7.12103 22.2459 7.41007 22.2459Z" fill="#FF7F08"/>
<path d="M5.51652 10.6495C5.80557 10.6495 6.03988 10.4152 6.03988 10.1261C6.03988 9.8371 5.80557 9.60278 5.51652 9.60278C5.22748 9.60278 4.99316 9.8371 4.99316 10.1261C4.99316 10.4152 5.22748 10.6495 5.51652 10.6495Z" fill="#FF7F08"/>
</g>
<defs>
<clipPath id="clip0">
<rect width="29" height="29" fill="white"/>
</clipPath>
</defs>
</svg>
