<svg width="235" height="235" viewBox="0 0 235 235" fill="none" xmlns="http://www.w3.org/2000/svg">
<g opacity="0.1">
<g clip-path="url(#clip0)">
<path d="M167.761 50.2017L163.213 56.5814C205.497 86.6946 215.362 145.384 185.249 187.667C155.136 229.95 96.4467 239.816 54.1634 209.703C11.8801 179.589 2.01406 120.9 32.1278 78.617C39.944 67.6421 50.0289 58.4756 61.6981 51.7394L57.7775 44.9617C9.06894 73.0892 -7.61553 135.377 20.5119 184.085C38.7038 215.588 72.3181 234.996 108.696 235C164.941 234.995 210.534 189.396 210.529 133.151C210.526 100.212 194.593 69.3081 167.761 50.2017Z" fill="black"/>
<path d="M42.1124 133.167C42.1109 122.697 44.5897 112.375 49.3455 103.047L54.1414 115.037L61.4161 112.13L53.5828 92.5472C52.8866 90.7891 51.0296 89.783 49.1766 90.1605L29.5933 94.0771L31.131 101.758L42.3596 99.512C23.7413 136.117 38.322 180.883 74.9266 199.502C76.5085 200.307 78.1192 201.054 79.7544 201.744L82.803 194.53C58.1183 184.138 42.0786 159.95 42.1124 133.167Z" fill="black"/>
<path d="M181.154 133.167C181.229 112.858 172.929 93.4156 158.208 79.4238L152.789 85.077C179.344 110.501 180.261 152.638 154.837 179.192C153.247 180.853 151.573 182.429 149.821 183.916V172.333H141.988V191.917C141.988 193.783 143.305 195.39 145.136 195.757L164.719 199.674L166.257 191.993L155.053 189.753C171.624 175.627 181.165 154.942 181.154 133.167Z" fill="black"/>
<path d="M151.781 51.4438C151.185 51.0992 150.509 50.9175 149.821 50.917H127.327L137.972 4.79693C138.456 2.68781 137.139 0.58456 135.03 0.0998736C134.743 0.03378 134.449 0.000488422 134.154 0.000488422H98.9044C97.0684 -1.1602e-06 95.4788 1.27536 95.0812 3.06821L79.4146 73.5681C79.1571 74.7279 79.4391 75.9416 80.1813 76.8688C80.9254 77.7946 82.0495 78.3332 83.2372 78.3337H113.643L102.907 128.428C102.503 130.312 103.529 132.21 105.328 132.903C105.776 133.078 106.253 133.167 106.735 133.167C108.133 133.167 109.425 132.422 110.126 131.212L153.209 56.796C154.293 54.9233 153.653 52.5273 151.781 51.4438ZM115.756 105.854L122.318 75.2395C122.772 73.1245 121.426 71.0418 119.311 70.5875C119.04 70.5292 118.764 70.4998 118.487 70.5003H88.1199L102.046 7.83381H129.231L118.587 53.9539C118.102 56.063 119.419 58.1663 121.528 58.651C121.815 58.7171 122.109 58.7504 122.404 58.7504H143.027L115.756 105.854Z" fill="black"/>
<path d="M130.484 115.538L123.703 119.463C129.107 128.832 125.892 140.808 116.523 146.212C107.154 151.616 95.1777 148.401 89.7737 139.032C84.3697 129.663 87.5843 117.687 96.9534 112.283C97.9904 111.685 99.0797 111.183 100.208 110.784L97.5997 103.394C83.322 108.442 75.8402 124.109 80.8883 138.387C84.7614 149.341 95.1185 156.665 106.737 156.667C121.883 156.663 134.158 144.381 134.154 129.236C134.153 124.427 132.887 119.703 130.484 115.538Z" fill="black"/>
<path d="M227.295 17.1358C227.115 16.9096 226.91 16.7044 226.684 16.5238L207.1 0.857157C205.41 -0.493601 202.945 -0.218455 201.595 1.47158C201.04 2.16581 200.738 3.02797 200.738 3.91705V11.4336L187.517 0.857157C185.827 -0.493601 183.362 -0.218455 182.012 1.47158C181.457 2.16581 181.154 3.02797 181.154 3.91705V35.2503C181.155 37.4138 182.909 39.1675 185.073 39.167C185.961 39.167 186.823 38.8649 187.517 38.3102L200.738 27.7338V35.2503C200.739 37.4138 202.493 39.1675 204.657 39.167C205.545 39.167 206.407 38.8649 207.101 38.3102L226.684 22.6436C228.373 21.2918 228.647 18.8258 227.295 17.1358ZM188.987 27.0997V12.0676L198.385 19.5837L188.987 27.0997ZM208.57 27.0997V12.0676L217.968 19.5837L208.57 27.0997Z" fill="black"/>
</g>
</g>
<defs>
<clipPath id="clip0">
<rect width="235" height="235" fill="white"/>
</clipPath>
</defs>
</svg>
