<svg width="38" height="38" viewBox="0 0 38 38" fill="none" xmlns="http://www.w3.org/2000/svg">
<path d="M25.9303 4.04405C25.606 3.95854 25.4094 3.62943 25.4879 3.30333C25.5665 2.97723 25.8911 2.77368 26.2187 2.84534C31.6829 4.1675 35.2956 9.36642 34.6299 14.9487C33.9638 20.5309 29.2298 24.7337 23.6078 24.7337C17.9862 24.7337 13.2518 20.5309 12.5861 14.9487C11.92 9.36642 15.5327 4.1675 20.9969 2.84534C21.2131 2.78843 21.4429 2.85257 21.5979 3.01366C21.7533 3.17445 21.809 3.40661 21.7443 3.62069C21.6792 3.83448 21.504 3.99648 21.2854 4.04405C16.1654 5.26625 12.9182 10.3065 13.9212 15.4741H17.0904C16.916 14.8728 16.8266 14.2501 16.8245 13.6241C16.8245 9.8777 19.8615 6.84074 23.6078 6.84074C27.3542 6.84074 30.3912 9.8777 30.3912 13.6241C30.3894 14.2501 30.2996 14.8728 30.1256 15.4741H33.2945C34.2977 10.3065 31.0503 5.26625 25.9303 4.04405ZM29.2542 16.7074H27.3078C26.9673 16.7074 26.6912 16.4313 26.6912 16.0908C26.6912 15.7502 26.9673 15.4741 27.3078 15.4741H28.8329C29.6574 13.1721 28.8781 10.6019 26.9146 9.14511C24.9508 7.68865 22.2652 7.68865 20.3014 9.14511C18.3375 10.6019 17.5586 13.1721 18.383 15.4741H19.9078C20.2484 15.4741 20.5245 15.7502 20.5245 16.0908C20.5245 16.4313 20.2484 16.7074 19.9078 16.7074H14.2413C15.5704 20.7543 19.3484 23.4902 23.6078 23.4902C27.8676 23.4902 31.6456 20.7543 32.9744 16.7074H29.2542Z" fill="#FF7F08"/>
<path d="M23.6081 22.2576C21.9053 22.2576 20.5247 20.877 20.5247 19.1743C20.5247 17.4712 21.9053 16.0909 23.6081 16.0909C25.3111 16.0909 26.6914 17.4712 26.6914 19.1743C26.6893 20.8761 25.3102 22.2555 23.6081 22.2576ZM23.6081 21.0243C24.6297 21.0243 25.4581 20.1959 25.4581 19.1743V19.1631C24.3672 20.0014 22.849 20.0014 21.7581 19.1631V19.1743C21.7581 20.1959 22.5864 21.0243 23.6081 21.0243ZM23.6081 17.3243C23.089 17.3255 22.5948 17.5462 22.2471 17.9316C22.5876 18.3288 23.0847 18.5576 23.6081 18.5576C24.1314 18.5576 24.6285 18.3288 24.9691 17.9316C24.6216 17.5462 24.1272 17.3255 23.6081 17.3243Z" fill="#FF7F08"/>
<path d="M18.0577 18.5575C18.0577 18.898 18.3338 19.1741 18.6743 19.1741C19.0149 19.1741 19.291 18.898 19.291 18.5575C19.291 18.2169 19.0149 17.9408 18.6743 17.9408C18.3338 17.9408 18.0577 18.2169 18.0577 18.5575Z" fill="#FF7F08"/>
<path d="M27.9246 18.5575C27.9246 18.898 28.2007 19.1741 28.5413 19.1741C28.8818 19.1741 29.158 18.898 29.158 18.5575C29.158 18.2169 28.8818 17.9408 28.5413 17.9408C28.2007 17.9408 27.9246 18.2169 27.9246 18.5575Z" fill="#FF7F08"/>
<path d="M10.9989 21.0857L11.9964 20.5925C8.58821 14.9021 9.79956 7.58071 14.8594 3.29173C19.9192 -0.99754 27.34 -0.993927 32.3956 3.29986C37.4511 7.59396 38.6556 14.9163 35.2419 20.6036L36.2169 21.0908C36.5216 21.2429 36.6454 21.6135 36.493 21.9182C36.341 22.2233 35.9703 22.3467 35.6656 22.1947L34.5554 21.6397C34.2681 22.0351 33.9592 22.4148 33.6304 22.7767L34.5271 23.6716C34.6876 23.8264 34.7517 24.0555 34.6954 24.2711C34.6388 24.4867 34.4705 24.6553 34.2549 24.7116C34.0393 24.7682 33.8099 24.7038 33.6551 24.5436L32.7524 23.6406C32.3916 23.9694 32.0131 24.278 31.619 24.5656L32.1739 25.68C32.3263 25.9847 32.2025 26.3554 31.8975 26.5077C31.5928 26.6598 31.2224 26.536 31.0701 26.2313L30.5829 25.2563C30.003 25.6029 29.398 25.9061 28.7735 26.1641C27.1361 26.8428 25.3807 27.1915 23.6077 27.1909C23.2672 27.1909 22.9911 26.9148 22.9911 26.5743C22.9911 26.2337 23.2672 25.9576 23.6077 25.9576C25.2196 25.9588 26.8157 25.6423 28.305 25.0263C33.7036 22.8119 36.8146 17.1201 35.7637 11.3801C34.7129 5.64037 29.7871 1.42005 23.954 1.26197C18.121 1.10359 12.9738 5.0508 11.6134 10.7255C10.253 16.3998 13.0509 22.2519 18.3218 24.7556C18.6292 24.9019 18.7599 25.2702 18.6133 25.5776C18.4669 25.885 18.099 26.0157 17.7912 25.8694C17.3938 25.68 17.012 25.4659 16.6383 25.241L16.1448 26.2343C15.9927 26.5393 15.6221 26.6628 15.3174 26.5107C15.0126 26.3584 14.8889 25.988 15.0409 25.683L15.607 24.5514C15.2147 24.2636 14.838 23.9549 14.4788 23.6264L13.5622 24.543C13.3204 24.7766 12.9356 24.7733 12.6977 24.5355C12.4598 24.2976 12.4565 23.9128 12.6902 23.671L13.6086 22.7508C13.2789 22.3931 12.9687 22.0182 12.6793 21.6274L11.5502 22.1922C11.2452 22.3443 10.8748 22.2205 10.7225 21.9158C10.5704 21.6111 10.6938 21.2404 10.9989 21.0884V21.0857Z" fill="#FF7F08"/>
<path d="M17.4412 30.8908C17.4412 31.2314 17.7173 31.5075 18.0579 31.5075C18.3984 31.5075 18.6746 31.2314 18.6746 30.8908C18.6746 30.5503 18.3984 30.2742 18.0579 30.2742C17.7173 30.2742 17.4412 30.5503 17.4412 30.8908Z" fill="#FF7F08"/>
<path d="M22.3746 33.9742C22.3746 34.3148 22.6507 34.5909 22.9912 34.5909C23.3318 34.5909 23.6079 34.3148 23.6079 33.9742C23.6079 33.6337 23.3318 33.3575 22.9912 33.3575C22.6507 33.3575 22.3746 33.6337 22.3746 33.9742Z" fill="#FF7F08"/>
<path d="M29.7745 32.1242C29.7745 32.4648 30.0506 32.7409 30.3911 32.7409C30.7317 32.7409 31.0078 32.4648 31.0078 32.1242C31.0078 31.7837 30.7317 31.5076 30.3911 31.5076C30.0506 31.5076 29.7745 31.7837 29.7745 32.1242Z" fill="#FF7F08"/>
<path d="M15.5914 35.2076C15.5914 35.5482 15.8675 35.8243 16.208 35.8243C16.5486 35.8243 16.8247 35.5482 16.8247 35.2076C16.8247 34.8671 16.5486 34.5909 16.208 34.5909C15.8675 34.5909 15.5914 34.8671 15.5914 35.2076Z" fill="#FF7F08"/>
<path d="M34.0914 30.2743C34.0914 30.6148 34.3675 30.8909 34.708 30.8909C35.0486 30.8909 35.3247 30.6148 35.3247 30.2743C35.3247 29.9337 35.0486 29.6576 34.708 29.6576C34.3675 29.6576 34.0914 29.9337 34.0914 30.2743Z" fill="#FF7F08"/>
<path d="M29.7745 34.5909H31.6245C31.9651 34.5909 32.2412 34.8671 32.2412 35.2076C32.2412 35.5482 31.9651 35.8243 31.6245 35.8243H29.7745C29.434 35.8243 29.1579 35.5482 29.1579 35.2076C29.1579 34.8671 29.434 34.5909 29.7745 34.5909Z" fill="#FF7F08"/>
<path d="M26.0747 29.0409C26.4153 29.0409 26.6914 29.317 26.6914 29.6576V31.5076C26.6914 31.8481 26.4153 32.1242 26.0747 32.1242C25.7342 32.1242 25.4581 31.8481 25.4581 31.5076V29.6576C25.4581 29.317 25.7342 29.0409 26.0747 29.0409Z" fill="#FF7F08"/>
<path d="M13.7413 29.0409H14.9746C15.3152 29.0409 15.5913 29.317 15.5913 29.6576C15.5913 29.9981 15.3152 30.2742 14.9746 30.2742H13.7413C13.4007 30.2742 13.1246 29.9981 13.1246 29.6576C13.1246 29.317 13.4007 29.0409 13.7413 29.0409Z" fill="#FF7F08"/>
<path d="M2.02433 22.8741H8.19101C9.21267 22.8741 10.041 23.7022 10.041 24.7242V35.2075C10.041 36.2292 9.21267 37.0575 8.19101 37.0575H2.02433C1.00268 37.0575 0.17433 36.2292 0.17433 35.2075V24.7242C0.17433 23.7022 1.00268 22.8741 2.02433 22.8741ZM2.02433 35.8242H8.19101C8.53156 35.8242 8.80768 35.5481 8.80768 35.2075V24.7242C8.80768 24.3836 8.53156 24.1075 8.19101 24.1075H2.02433C1.68378 24.1075 1.40767 24.3836 1.40767 24.7242V33.3575H6.95768C7.29823 33.3575 7.57434 33.6336 7.57434 33.9742C7.57434 34.3147 7.29823 34.5909 6.95768 34.5909H1.40767V35.2075C1.40767 35.5481 1.68378 35.8242 2.02433 35.8242Z" fill="#FF7F08"/>
<path d="M2.53529 18.6635C2.28597 18.6635 2.06105 18.5133 1.9656 18.2829C1.87015 18.0523 1.92284 17.7873 2.09929 17.6109C3.30432 16.4088 5.25489 16.4088 6.45961 17.6109C6.69357 17.853 6.68996 18.2375 6.45209 18.4754C6.21421 18.7132 5.8297 18.7165 5.58791 18.4829C4.86525 17.7602 3.69365 17.7602 2.97129 18.4829C2.85567 18.5985 2.69879 18.6635 2.53529 18.6635Z" fill="#FF7F08"/>
<path d="M7.33151 16.7382C5.64471 15.055 2.91367 15.055 1.22657 16.7382C0.984784 16.9719 0.599969 16.9686 0.362095 16.7307C0.12422 16.4928 0.120908 16.1083 0.354568 15.8662C2.52344 13.7021 6.03465 13.7021 8.20352 15.8662C8.44441 16.1071 8.4441 16.4976 8.20322 16.7385C7.96233 16.9794 7.5718 16.9791 7.33091 16.7382H7.33151Z" fill="#FF7F08"/>
<path d="M4.71582 19.3549C4.95671 19.5954 4.95671 19.986 4.71582 20.2268C4.47494 20.4677 4.0844 20.4677 3.84382 20.2268C3.60293 19.986 3.60293 19.5954 3.84382 19.3549C4.0847 19.114 4.47494 19.114 4.71582 19.3549Z" fill="#FF7F08"/>
<path d="M5.10802 32.3873C4.11135 32.3879 3.19117 31.8528 2.69886 30.9865C2.20625 30.12 2.21739 29.0555 2.72777 28.1995C2.9015 27.9065 3.28 27.8102 3.57297 27.9839C3.86565 28.1579 3.96231 28.5361 3.78827 28.8291C3.42754 29.4325 3.52209 30.2037 4.01771 30.702C4.62775 31.2852 5.58859 31.2852 6.19833 30.702C6.69426 30.2037 6.7885 29.4325 6.42778 28.8291C6.25404 28.5361 6.35039 28.1579 6.64337 27.9839C6.93604 27.8102 7.31454 27.9065 7.48828 28.1995C7.99895 29.0555 8.00979 30.12 7.51748 30.9865C7.02487 31.8528 6.10469 32.3879 5.10802 32.3873Z" fill="#FF7F08"/>
<path d="M5.10795 30.2741C4.7674 30.2741 4.49128 29.998 4.49128 29.6574V27.1908C4.49128 26.8502 4.7674 26.5741 5.10795 26.5741C5.4485 26.5741 5.72461 26.8502 5.72461 27.1908V29.6574C5.72461 29.998 5.4485 30.2741 5.10795 30.2741Z" fill="#FF7F08"/>
</svg>
