<svg width="44" height="45" viewBox="0 0 44 45" fill="none" xmlns="http://www.w3.org/2000/svg">
<g clip-path="url(#clip0)">
<path d="M25.0006 9.07217L26.0927 10.0745L27.095 8.98248C27.9861 8.01166 29.5009 7.94679 30.4718 8.83787L34.7509 12.7655C35.7217 13.6566 35.7865 15.1714 34.8955 16.1422L33.8931 17.2343L34.9852 18.2367C35.956 19.1278 36.0209 20.6426 35.1298 21.6134L20.0738 38.0166C19.1827 38.9874 17.6679 39.0523 16.6971 38.1612L6.71252 28.9967C5.7417 28.1056 5.67682 26.5908 6.56791 25.62L21.6239 9.21678C22.515 8.24596 24.0298 8.18109 25.0006 9.07217ZM7.23652 26.2337C6.68383 26.8358 6.72406 27.7754 7.32621 28.3281L17.3108 37.4926C17.9129 38.0453 18.8525 38.0051 19.4052 37.4029L34.4612 20.9997C35.0139 20.3976 34.9736 19.458 34.3715 18.9053L32.9451 17.5961L28.3094 13.3411C28.1248 13.1717 28.1125 12.8846 28.282 12.7C28.4514 12.5153 28.7385 12.5031 28.9231 12.6725L33.2245 16.6206L34.2269 15.5285C34.7795 14.9264 34.7393 13.9868 34.1372 13.4341L29.8581 9.50648C29.2559 8.95379 28.3163 8.99402 27.7636 9.59617L26.7613 10.6882L27.4967 11.3633C27.6814 11.5328 27.6937 11.8198 27.5242 12.0044C27.3547 12.1891 27.0677 12.2014 26.883 12.0319L25.8133 11.05L24.3869 9.74078C23.7848 9.18809 22.8452 9.22833 22.2925 9.83048L7.23652 26.2337Z" fill="#FF7F08"/>
<path d="M18.9727 19.3077L21.5428 21.6668L24.3854 17.6818C24.6613 17.2741 24.9533 17.1252 25.2531 17.2392C25.5544 17.3536 25.6734 17.661 25.6078 18.1479L24.5974 26.3155C24.5411 26.7329 24.327 27.0381 24.01 27.1529C23.6929 27.2675 23.3331 27.17 23.0228 26.8852L20.8265 24.8692L17.3703 29.6084C17.0949 30.0145 16.8034 30.1627 16.504 30.049C16.4362 30.0231 16.3775 29.9876 16.3282 29.9423C16.1586 29.7867 16.0986 29.5163 16.15 29.1354L17.3982 19.8775C17.4545 19.4601 17.6686 19.1549 17.9856 19.0402C18.3026 18.9254 18.6624 19.0229 18.9727 19.3077ZM18.2976 19.9986L17.1731 28.3384L20.3924 23.924C20.4685 23.8196 20.5856 23.7527 20.7141 23.7398C20.8427 23.727 20.9707 23.7697 21.0659 23.8571L23.6365 26.2165C23.6549 26.2334 23.6715 26.2469 23.6862 26.2575C23.6904 26.241 23.6943 26.2216 23.6973 26.1992L24.5938 18.9525L21.9836 22.6117C21.9081 22.7176 21.7908 22.786 21.6614 22.7995C21.5321 22.8131 21.4031 22.7705 21.3073 22.6825L18.359 19.9764C18.3407 19.9595 18.3241 19.9461 18.3095 19.9355C18.3051 19.953 18.3009 19.974 18.2976 19.9986Z" fill="#FF7F08"/>
<path d="M23.6913 10.4986C23.876 10.668 23.8882 10.9551 23.7188 11.1397L23.0642 11.8529C22.8947 12.0375 22.6077 12.0498 22.423 11.8804C22.2384 11.7109 22.2261 11.4238 22.3956 11.2392L23.0502 10.526C23.2196 10.3414 23.5067 10.3291 23.6913 10.4986Z" fill="#FF7F08"/>
<path d="M21.7275 12.6381C21.9121 12.8076 21.9244 13.0946 21.7549 13.2793L18.1546 17.2018C17.9851 17.3864 17.6981 17.3987 17.5134 17.2292C17.3288 17.0598 17.3165 16.7727 17.486 16.5881L21.0863 12.6656C21.2558 12.4809 21.5428 12.4686 21.7275 12.6381Z" fill="#FF7F08"/>
</g>
<defs>
<clipPath id="clip0">
<rect width="30.9174" height="30.9174" transform="matrix(-0.736714 -0.676205 -0.676205 0.736714 44 21.2549)" fill="white"/>
</clipPath>
</defs>
</svg>
