<svg width="40" height="40" viewBox="0 0 40 40" fill="none" xmlns="http://www.w3.org/2000/svg">
<path d="M35.625 15.625H4.375C3.5465 15.626 2.75222 15.9556 2.16639 16.5414C1.58055 17.1272 1.25099 17.9215 1.25 18.75V26.25C1.25 26.4158 1.31585 26.5747 1.43306 26.6919C1.55027 26.8092 1.70924 26.875 1.875 26.875H4.375V27.5C4.375 27.6658 4.44085 27.8247 4.55806 27.9419C4.67527 28.0592 4.83424 28.125 5 28.125H12.5C12.6658 28.125 12.8247 28.0592 12.9419 27.9419C13.0592 27.8247 13.125 27.6658 13.125 27.5V26.875H26.875V27.5C26.875 27.6658 26.9408 27.8247 27.0581 27.9419C27.1753 28.0592 27.3342 28.125 27.5 28.125H35C35.1658 28.125 35.3247 28.0592 35.4419 27.9419C35.5592 27.8247 35.625 27.6658 35.625 27.5V26.875H38.125C38.2908 26.875 38.4497 26.8092 38.5669 26.6919C38.6842 26.5747 38.75 26.4158 38.75 26.25V18.75C38.749 17.9215 38.4194 17.1272 37.8336 16.5414C37.2478 15.9556 36.4535 15.626 35.625 15.625ZM5.625 16.875H6.875V20.625H5.625V16.875ZM11.875 26.875H5.625V25.625C5.625 25.4592 5.69085 25.3003 5.80806 25.1831C5.92527 25.0658 6.08424 25 6.25 25H11.25C11.4158 25 11.5747 25.0658 11.6919 25.1831C11.8092 25.3003 11.875 25.4592 11.875 25.625V26.875ZM34.375 26.875H28.125V25.625C28.125 25.4592 28.1908 25.3003 28.3081 25.1831C28.4253 25.0658 28.5842 25 28.75 25H33.75C33.9158 25 34.0747 25.0658 34.1919 25.1831C34.3092 25.3003 34.375 25.4592 34.375 25.625V26.875ZM37.5 25.625H35.625C35.625 25.1277 35.4275 24.6508 35.0758 24.2992C34.7242 23.9475 34.2473 23.75 33.75 23.75H28.75C28.2527 23.75 27.7758 23.9475 27.4242 24.2992C27.0725 24.6508 26.875 25.1277 26.875 25.625H25.625V23.125H24.375V25.625H23.125V23.125H21.875V25.625H20.625V23.125H19.375V25.625H18.125V23.125H16.875V25.625H15.625V23.125H14.375V25.625H13.125C13.125 25.1277 12.9275 24.6508 12.5758 24.2992C12.2242 23.9475 11.7473 23.75 11.25 23.75H6.25C5.75272 23.75 5.27581 23.9475 4.92417 24.2992C4.57254 24.6508 4.375 25.1277 4.375 25.625H2.5V18.75C2.5 18.2527 2.69754 17.7758 3.04917 17.4242C3.40081 17.0725 3.87772 16.875 4.375 16.875V21.25C4.375 21.4158 4.44085 21.5747 4.55806 21.6919C4.67527 21.8092 4.83424 21.875 5 21.875H7.5C7.66576 21.875 7.82473 21.8092 7.94194 21.6919C8.05915 21.5747 8.125 21.4158 8.125 21.25V16.875H35.625C36.1223 16.875 36.5992 17.0725 36.9508 17.4242C37.3025 17.7758 37.5 18.2527 37.5 18.75V25.625Z" fill="#FF7F08"/>
<path d="M33.75 18.125C33.3792 18.125 33.0167 18.235 32.7083 18.441C32.4 18.647 32.1596 18.9399 32.0177 19.2825C31.8758 19.6251 31.8387 20.0021 31.911 20.3658C31.9834 20.7295 32.162 21.0636 32.4242 21.3258C32.6864 21.5881 33.0205 21.7666 33.3842 21.839C33.7479 21.9113 34.1249 21.8742 34.4675 21.7323C34.8101 21.5904 35.103 21.35 35.309 21.0417C35.515 20.7334 35.625 20.3708 35.625 20C35.625 19.5027 35.4275 19.0258 35.0758 18.6742C34.7242 18.3225 34.2473 18.125 33.75 18.125ZM33.75 20.625C33.6264 20.625 33.5056 20.5883 33.4028 20.5197C33.3 20.451 33.2199 20.3534 33.1726 20.2392C33.1253 20.125 33.1129 19.9993 33.137 19.8781C33.1611 19.7568 33.2207 19.6455 33.3081 19.5581C33.3955 19.4707 33.5068 19.4111 33.6281 19.387C33.7493 19.3629 33.875 19.3753 33.9892 19.4226C34.1034 19.4699 34.201 19.55 34.2697 19.6528C34.3383 19.7556 34.375 19.8764 34.375 20C34.375 20.1658 34.3092 20.3247 34.1919 20.4419C34.0747 20.5592 33.9158 20.625 33.75 20.625Z" fill="#FF7F08"/>
<path d="M27.5 18.125H12.5C12.3342 18.125 12.1753 18.1908 12.0581 18.3081C11.9408 18.4253 11.875 18.5842 11.875 18.75V21.25C11.875 21.4158 11.9408 21.5747 12.0581 21.6919C12.1753 21.8092 12.3342 21.875 12.5 21.875H27.5C27.6658 21.875 27.8247 21.8092 27.9419 21.6919C28.0592 21.5747 28.125 21.4158 28.125 21.25V18.75C28.125 18.5842 28.0592 18.4253 27.9419 18.3081C27.8247 18.1908 27.6658 18.125 27.5 18.125ZM26.875 20.625H13.125V19.375H26.875V20.625Z" fill="#FF7F08"/>
<path d="M9.375 18.125H10.625V19.375H9.375V18.125Z" fill="#FF7F08"/>
<path d="M9.375 20.625H10.625V21.875H9.375V20.625Z" fill="#FF7F08"/>
<path d="M29.375 18.125H30.625V19.375H29.375V18.125Z" fill="#FF7F08"/>
<path d="M29.375 20.625H30.625V21.875H29.375V20.625Z" fill="#FF7F08"/>
<path d="M13.9956 32.6875C13.6361 33.0445 13.2065 33.3231 12.734 33.506C12.2615 33.6889 11.7562 33.7719 11.25 33.75V35C11.921 35.0219 12.5894 34.9064 13.2141 34.6605C13.8388 34.4145 14.4065 34.0434 14.8825 33.57C16.8544 31.585 16.855 28.2612 16.8544 28.1206L15.6044 28.1294C15.6044 28.1587 15.605 31.0694 13.9956 32.6875Z" fill="#FF7F08"/>
<path d="M28.75 35V33.75C24.4375 33.75 24.375 28.3537 24.375 28.125H23.125C23.125 30.5031 24.3006 35 28.75 35Z" fill="#FF7F08"/>
<path d="M14.375 37.5C19.3181 37.5 19.375 29.7069 19.375 29.375H18.125C18.125 29.4438 18.0819 36.25 14.375 36.25V37.5Z" fill="#FF7F08"/>
<path d="M20.625 29.375C20.625 29.7069 20.6819 37.5 25.625 37.5V36.25C21.9262 36.25 21.875 29.4431 21.875 29.375H20.625Z" fill="#FF7F08"/>
<path d="M25.4032 7.64693C25.3488 7.60193 19.9388 3.14131 14.5969 7.64693L15.4032 8.60318C19.9307 4.78131 24.41 8.44568 24.5975 8.60318L25.4032 7.64693Z" fill="#FF7F08"/>
<path d="M23.543 9.53567C22.5806 8.64009 21.3146 8.14221 19.9999 8.14221C18.6852 8.14221 17.4193 8.64009 16.4568 9.53567L17.293 10.4644C19.953 8.0713 22.5974 10.3669 22.708 10.4644L23.543 9.53567Z" fill="#FF7F08"/>
<path d="M27.322 6.4375C27.1876 6.3025 24.0332 3.125 19.7457 3.125C17.2057 3.125 14.8276 4.23938 12.6782 6.4375L13.572 7.3125C15.4745 5.36687 17.5482 4.37875 19.7357 4.375H19.7451C23.4951 4.375 26.4001 7.28312 26.4288 7.3125L27.322 6.4375Z" fill="#FF7F08"/>
<path d="M18.125 12.5C18.125 12.8708 18.235 13.2334 18.441 13.5417C18.647 13.85 18.9399 14.0904 19.2825 14.2323C19.6251 14.3742 20.0021 14.4113 20.3658 14.339C20.7295 14.2666 21.0636 14.088 21.3258 13.8258C21.5881 13.5636 21.7666 13.2295 21.839 12.8658C21.9113 12.5021 21.8742 12.1251 21.7323 11.7825C21.5904 11.4399 21.35 11.147 21.0417 10.941C20.7334 10.735 20.3708 10.625 20 10.625C19.5027 10.625 19.0258 10.8225 18.6742 11.1742C18.3225 11.5258 18.125 12.0027 18.125 12.5ZM20.625 12.5C20.625 12.6236 20.5883 12.7444 20.5197 12.8472C20.451 12.95 20.3534 13.0301 20.2392 13.0774C20.125 13.1247 19.9993 13.1371 19.8781 13.113C19.7568 13.0889 19.6455 13.0293 19.5581 12.9419C19.4707 12.8545 19.4111 12.7432 19.387 12.6219C19.3629 12.5007 19.3753 12.375 19.4226 12.2608C19.4699 12.1466 19.55 12.049 19.6528 11.9803C19.7556 11.9117 19.8764 11.875 20 11.875C20.1658 11.875 20.3247 11.9408 20.4419 12.0581C20.5592 12.1753 20.625 12.3342 20.625 12.5Z" fill="#FF7F08"/>
</svg>
