<svg width="42" height="30" viewBox="0 0 42 30" fill="none" xmlns="http://www.w3.org/2000/svg">
<path d="M0.936306 12.5159C0.419197 12.5159 0 12.9351 0 13.4522V16.548C0 17.0651 0.419197 17.4843 0.936306 17.4843C1.45341 17.4843 1.87261 17.0651 1.87261 16.548V13.4522C1.87261 12.9349 1.45341 12.5159 0.936306 12.5159Z" fill="#FF7F08"/>
<path d="M4.58426 12.5159C4.06715 12.5159 3.64795 12.9351 3.64795 13.4522V16.548C3.64795 17.0651 4.06715 17.4843 4.58426 17.4843C5.10136 17.4843 5.52056 17.0651 5.52056 16.548V13.4522C5.52056 12.9349 5.1015 12.5159 4.58426 12.5159Z" fill="#FF7F08"/>
<path d="M8.23245 11.2059C7.71534 11.2059 7.29614 11.6251 7.29614 12.1422V17.8577C7.29614 18.3748 7.71534 18.794 8.23245 18.794C8.74955 18.794 9.16875 18.3748 9.16875 17.8577V12.1422C9.16875 11.6251 8.74955 11.2059 8.23245 11.2059Z" fill="#FF7F08"/>
<path d="M11.8799 9.6582C11.3628 9.6582 10.9436 10.0774 10.9436 10.5945V19.4058C10.9436 19.9229 11.3628 20.3421 11.8799 20.3421C12.397 20.3421 12.8162 19.9229 12.8162 19.4058V10.5945C12.8162 10.0773 12.3972 9.6582 11.8799 9.6582Z" fill="#FF7F08"/>
<path d="M15.5281 6.91943C15.011 6.91943 14.5918 7.33863 14.5918 7.85574V22.1443C14.5918 22.6614 15.011 23.0806 15.5281 23.0806C16.0452 23.0806 16.4644 22.6614 16.4644 22.1443V7.85574C16.4644 7.33863 16.0452 6.91943 15.5281 6.91943Z" fill="#FF7F08"/>
<path d="M19.1761 0.429932C18.6589 0.429932 18.2397 0.849129 18.2397 1.36624V28.6337C18.2397 29.1508 18.6589 29.57 19.1761 29.57C19.6932 29.57 20.1124 29.1508 20.1124 28.6337V1.36624C20.1124 0.849129 19.6932 0.429932 19.1761 0.429932Z" fill="#FF7F08"/>
<path d="M22.824 2.75183C22.3069 2.75183 21.8877 3.17103 21.8877 3.68814V26.312C21.8877 26.8291 22.3069 27.2483 22.824 27.2483C23.3411 27.2483 23.7603 26.8291 23.7603 26.312V3.68814C23.7603 3.17089 23.3411 2.75183 22.824 2.75183Z" fill="#FF7F08"/>
<path d="M26.4719 7.39563C25.9548 7.39563 25.5356 7.81483 25.5356 8.33194V21.668C25.5356 22.1851 25.9548 22.6043 26.4719 22.6043C26.9891 22.6043 27.4083 22.1851 27.4083 21.668V8.33194C27.4083 7.81483 26.9891 7.39563 26.4719 7.39563Z" fill="#FF7F08"/>
<path d="M30.1199 10.1937C29.6028 10.1937 29.1836 10.6129 29.1836 11.13V18.8698C29.1836 19.3869 29.6028 19.8061 30.1199 19.8061C30.637 19.8061 31.0562 19.3869 31.0562 18.8698V11.13C31.0562 10.6129 30.637 10.1937 30.1199 10.1937Z" fill="#FF7F08"/>
<path d="M33.7678 11.3848C33.2507 11.3848 32.8315 11.804 32.8315 12.3211V17.6793C32.8315 18.1964 33.2507 18.6156 33.7678 18.6156C34.285 18.6156 34.7042 18.1964 34.7042 17.6793V12.3211C34.7042 11.804 34.285 11.3848 33.7678 11.3848Z" fill="#FF7F08"/>
<path d="M37.4158 12.5159C36.8987 12.5159 36.4795 12.9351 36.4795 13.4522V16.548C36.4795 17.0651 36.8987 17.4843 37.4158 17.4843C37.9329 17.4843 38.3521 17.0651 38.3521 16.548V13.4522C38.3521 12.9349 37.9329 12.5159 37.4158 12.5159Z" fill="#FF7F08"/>
<path d="M41.0637 12.5159C40.5466 12.5159 40.1274 12.9351 40.1274 13.4522V16.548C40.1274 17.0651 40.5466 17.4843 41.0637 17.4843C41.5809 17.4843 42.0001 17.0651 42.0001 16.548V13.4522C42.0001 12.9349 41.5809 12.5159 41.0637 12.5159Z" fill="#FF7F08"/>
</svg>
