<svg width="32" height="29" viewBox="0 0 32 29" fill="none" xmlns="http://www.w3.org/2000/svg">
<path d="M0 26.9232V4.41825C0 3.53915 0.713292 2.82936 1.59673 2.82936H18.2904H21.6474L18.4605 6.00063H18.2904H3.18691V25.3343H22.616V21.8635V17.1229L25.8029 13.9516V21.8635V26.9232C25.8029 27.7958 25.0896 28.5121 24.2061 28.5121H1.59673C0.713292 28.5121 0 27.8023 0 26.9232ZM13.8798 14.746L10.4769 11.3599C9.52147 10.4091 7.97055 10.4091 7.01513 11.3599C6.55051 11.8222 6.2953 12.4343 6.2953 13.0855C6.2953 13.7367 6.55051 14.3488 7.01513 14.8046L12.1456 19.9099C13.101 20.8607 14.6519 20.8607 15.6074 19.9099L31.2802 4.31406C31.7448 3.85172 32 3.23961 32 2.59493C32 1.94375 31.7448 1.33164 31.2802 0.869297C30.3247 -0.0814322 28.7738 -0.0814322 27.8184 0.869297L13.8798 14.746Z" fill="#8800D6"/>
</svg>
