<svg width="210" height="210" viewBox="0 0 210 210" fill="none" xmlns="http://www.w3.org/2000/svg">
<g opacity="0.1">
<g clip-path="url(#clip0)">
<path d="M173.335 15.0423C173.101 15.0423 172.867 15.0663 172.638 15.1131C149.828 19.7842 126.096 15.5778 106.28 3.35238L101.664 0.517196C100.54 -0.171911 99.1255 -0.171911 98.0024 0.517196L93.3856 3.35238C73.5686 15.573 49.8362 19.7741 27.0283 15.0991C25.1342 14.7124 23.2852 15.9344 22.8989 17.8284C22.8512 18.0625 22.8276 18.301 22.828 18.5399V126.137C22.8219 139.964 26.4997 153.544 33.4827 165.479C41.4785 179.227 53.6401 190.074 68.2084 196.453L98.4329 209.708C99.3254 210.098 100.341 210.098 101.233 209.708L131.468 196.453C133.169 195.707 134.842 194.899 136.473 194.034C138.181 193.128 138.831 191.008 137.924 189.3C137.018 187.592 134.898 186.943 133.19 187.849C131.711 188.633 130.2 189.364 128.657 190.04L99.833 202.68L71.0191 190.051C57.8014 184.259 46.7691 174.413 39.5171 161.937C33.1624 151.072 29.818 138.71 29.8285 126.123V22.7222C53.1137 26.4412 76.9603 21.6809 97.0328 9.30583L99.833 7.59422L102.633 9.30233C122.703 21.6835 146.552 26.4456 169.837 22.7222V126.122C169.837 128.055 171.405 129.623 173.338 129.623C175.271 129.623 176.838 128.055 176.838 126.122V18.5394C176.837 16.6064 175.269 15.0405 173.335 15.0423Z" fill="#8800D6"/>
<path d="M99.5783 26.2775C98.6753 24.5681 96.5576 23.9144 94.8487 24.8174C94.7581 24.8651 94.6693 24.9172 94.5831 24.9728C78.4374 34.4308 59.3892 37.6567 41.0296 34.0419C39.1356 33.6551 37.2866 34.8771 36.9002 36.7712C36.853 37.003 36.8293 37.2389 36.8293 37.4756V121.096C36.8359 132.053 39.878 142.795 45.6184 152.129C52.3218 163.058 62.3092 171.587 74.1523 176.498C75.9356 177.245 77.9868 176.405 78.7341 174.621C79.4814 172.838 78.6413 170.787 76.8579 170.04C66.3695 165.695 57.5236 158.144 51.5863 148.468C46.5228 140.235 43.8381 130.761 43.8298 121.096V41.6198C62.6059 44.3496 81.7521 40.6065 98.1183 31.0072C99.8273 30.1045 100.481 27.9869 99.5783 26.2775Z" fill="#8800D6"/>
<path d="M185.967 176.036C184.656 174.897 182.706 174.891 181.389 176.025L164.651 192.763C163.484 192.413 162.24 192.413 161.073 192.763L130.334 162.024C128.944 160.681 126.728 160.72 125.385 162.11C124.075 163.467 124.075 165.617 125.385 166.973L156.121 197.712C155.084 201.387 157.223 205.206 160.897 206.242C161.528 206.42 162.182 206.507 162.837 206.502C166.704 206.502 169.838 203.368 169.838 199.501C169.83 198.896 169.741 198.294 169.575 197.712L186.314 180.974C187.581 179.515 187.427 177.304 185.967 176.036Z" fill="#8800D6"/>
<path d="M154.812 78.0187L140.811 64.0178C139.444 62.6514 137.228 62.6514 135.861 64.0178L92.8331 107.046L81.3068 95.5199C79.94 94.1535 77.7243 94.1535 76.3575 95.5199L62.3566 109.521C60.9902 110.888 60.9902 113.103 62.3566 114.47L90.3584 142.472C91.0147 143.128 91.9046 143.497 92.8331 143.497C93.7615 143.497 94.6514 143.128 95.3077 142.472L154.812 82.9681C156.178 81.6012 156.178 79.3856 154.812 78.0187ZM92.8331 135.048L69.7946 111.995L78.8321 102.944L90.3829 114.47C91.7497 115.836 93.9654 115.836 95.3322 114.47L138.336 71.4418L147.402 80.4934L92.8331 135.048Z" fill="#8800D6"/>
</g>
</g>
<defs>
<clipPath id="clip0">
<rect width="210" height="210" fill="white"/>
</clipPath>
</defs>
</svg>
