<svg width="258" height="258" viewBox="0 0 258 258" fill="none" xmlns="http://www.w3.org/2000/svg">
<g opacity="0.1">
<g clip-path="url(#clip0)">
<path d="M129 105.814C140.113 105.814 149.156 96.7737 149.156 85.6582C149.156 82.1289 148.227 78.6488 146.465 75.5899L133.364 52.9043C132.462 51.3453 130.799 50.3848 129 50.3848C127.201 50.3848 125.538 51.3453 124.636 52.9043L111.533 75.5958C109.773 78.6488 108.844 82.1289 108.844 85.6582C108.844 96.7737 117.887 105.814 129 105.814ZM120.262 80.631L129 65.5L137.736 80.625C138.614 82.1505 139.078 83.8906 139.078 85.6582C139.078 91.2169 134.557 95.7363 129 95.7363C123.443 95.7363 118.922 91.2169 118.922 85.6582C118.922 83.8906 119.386 82.1505 120.262 80.631Z" fill="black"/>
<path d="M129 125.977C155.396 125.977 176.871 104.501 176.871 78.1055C176.871 51.7094 155.396 30.2344 129 30.2344C102.604 30.2344 81.1289 51.7094 81.1289 78.1055C81.1289 104.501 102.604 125.977 129 125.977ZM129 40.3125C149.839 40.3125 166.793 57.2662 166.793 78.1055C166.793 98.9447 149.839 115.898 129 115.898C108.161 115.898 91.207 98.9447 91.207 78.1055C91.207 57.2662 108.161 40.3125 129 40.3125Z" fill="black"/>
<path d="M134.039 252.955C134.039 255.738 131.783 257.994 129 257.994C126.217 257.994 123.961 255.738 123.961 252.955C123.961 250.174 126.217 247.916 129 247.916C131.783 247.916 134.039 250.174 134.039 252.955Z" fill="black"/>
<path d="M252.961 159.228C250.178 159.228 247.922 161.486 247.922 164.268C247.922 169.826 243.4 174.346 237.844 174.346H206.098C200.541 174.346 196.02 169.826 196.02 164.268C196.02 161.486 193.764 159.228 190.98 159.228C188.197 159.228 185.941 161.486 185.941 164.268C185.941 169.826 181.42 174.346 175.863 174.346H158.195L191.276 125.197C201.633 111.536 207.105 95.256 207.105 78.1055C207.105 35.0372 172.068 0 129 0C85.9318 0 50.8945 35.0372 50.8945 78.1055C50.8945 95.3702 56.4355 111.741 66.9211 125.459L100.242 174.348H82.1367C76.58 174.348 72.0586 169.826 72.0586 164.27C72.0586 161.486 69.8028 159.23 67.0195 159.23C64.2362 159.23 61.9805 161.486 61.9805 164.27C61.9805 169.826 57.4591 174.348 51.9023 174.348H20.1562C14.5995 174.348 10.0781 169.826 10.0781 164.27C10.0781 161.486 7.82236 159.23 5.03906 159.23C2.25577 159.23 0 161.486 0 164.27V252.957C0 255.738 2.25577 257.996 5.03906 257.996H106.324C109.108 257.996 111.363 255.738 111.363 252.957C111.363 250.174 109.108 247.918 106.324 247.918H10.0781V220.01C13.0445 221.731 16.4872 222.723 20.1562 222.723H51.9023C57.9177 222.723 63.3229 220.069 67.0195 215.877C70.7162 220.069 76.1213 222.723 82.1367 222.723H113.883C119.78 222.723 125.244 220.118 128.988 215.9C132.726 220.15 138.177 222.723 144.117 222.723H175.863C181.879 222.723 187.284 220.069 190.98 215.877C194.677 220.069 200.082 222.723 206.098 222.723H237.844C241.513 222.723 244.956 221.731 247.922 220.01V247.918H151.676C148.892 247.918 146.637 250.174 146.637 252.957C146.637 255.738 148.892 257.996 151.676 257.996H252.961C255.744 257.996 258 255.738 258 252.957V164.27C258 161.486 255.744 159.228 252.961 159.228ZM75.0033 119.438C65.8247 107.472 60.9727 93.1794 60.9727 78.1055C60.9727 40.5959 91.4905 10.0781 129 10.0781C166.51 10.0781 197.027 40.5959 197.027 78.1055C197.027 93.0829 192.234 107.297 183.166 119.211C183.107 119.288 183.05 119.369 182.995 119.449C99.4014 243.647 184.747 116.912 130.167 197.667C129.429 197.492 128.852 197.502 128.278 197.584C119.77 185.103 75.0604 119.512 75.0033 119.438ZM113.883 212.643H82.1367C76.58 212.643 72.0586 208.123 72.0586 202.564C72.0586 199.783 69.8028 197.525 67.0195 197.525C64.2362 197.525 61.9805 199.783 61.9805 202.564C61.9805 208.123 57.4591 212.643 51.9023 212.643H20.1562C14.5995 212.643 10.0781 208.123 10.0781 202.564V181.713C13.0445 183.434 16.4872 184.424 20.1562 184.424H51.9023C57.9158 184.424 63.3229 181.776 67.0195 177.588C70.7162 181.776 76.1233 184.424 82.1367 184.424H107.112L122.739 207.353C121.012 210.546 117.625 212.643 113.883 212.643ZM237.844 212.643H206.098C200.541 212.643 196.02 208.123 196.02 202.564C196.02 199.783 193.764 197.525 190.98 197.525C188.197 197.525 185.941 199.783 185.941 202.564C185.941 208.123 181.42 212.643 175.863 212.643H144.117C140.517 212.643 137.279 210.755 135.484 207.765L151.392 184.424H175.863C181.877 184.424 187.284 181.776 190.98 177.588C194.677 181.776 200.084 184.424 206.098 184.424H237.844C241.513 184.424 244.956 183.44 247.922 181.719V202.564C247.922 208.123 243.4 212.643 237.844 212.643Z" fill="black"/>
</g>
</g>
<defs>
<clipPath id="clip0">
<rect width="258" height="258" fill="white"/>
</clipPath>
</defs>
</svg>
