<svg width="48" height="48" viewBox="0 0 48 48" fill="none" xmlns="http://www.w3.org/2000/svg">
<path d="M8.50675 29.1923L8.59132 29.724L9.11537 29.6004C12.3534 28.8363 15.4365 28.1217 18.4955 27.4768L18.504 27.475L18.5126 27.4729C18.7456 27.4152 18.9922 27.3202 19.1988 27.2406C19.2651 27.2151 19.3273 27.1912 19.3836 27.1705C19.6481 27.0736 19.831 27.0283 19.9767 27.0354C22.0578 27.1676 23.6988 26.2143 25.2073 25.2956L25.2074 25.2957L25.2146 25.2911C25.2826 25.2481 25.3539 25.198 25.4146 25.1554L25.4284 25.1456C25.497 25.0975 25.5548 25.0573 25.6079 25.0243C25.6234 25.0146 25.6369 25.0066 25.6486 25C26.6338 25.3013 27.4679 25.1689 28.2069 24.7604C28.8158 24.424 29.3462 23.9068 29.8435 23.3547C29.9981 23.463 30.1552 23.5694 30.3076 23.6727C30.4637 23.7784 30.6147 23.8807 30.7528 23.9781C31.1614 24.2665 31.5115 24.5475 31.7788 24.8714C32.4761 25.7249 33.1275 26.6274 33.7829 27.5477C33.8578 27.6528 33.9327 27.7582 34.0078 27.8637C34.5874 28.6787 35.1747 29.5046 35.7942 30.3027L35.7946 30.3032C36.8348 31.6392 37.9604 32.9669 39.1474 34.18C39.4322 34.4713 39.7518 34.6569 40.1108 34.6756C40.4648 34.694 40.7541 34.544 40.9666 34.3887C41.1627 34.2453 41.3413 34.0605 41.4819 33.9149C41.4904 33.9061 41.4988 33.8975 41.507 33.889C41.6646 33.7262 41.7738 33.6182 41.8698 33.5532C42.0652 33.4334 42.1159 33.2341 42.1287 33.1814C42.1504 33.0915 42.1546 33.0013 42.154 32.9297C42.1527 32.7812 42.1293 32.6105 42.0938 32.4468C42.0579 32.281 42.0053 32.1024 41.9365 31.9383C41.8732 31.7871 41.7788 31.6058 41.6391 31.4664C40.8374 30.6215 40.0027 29.8061 39.1766 28.9991C38.9767 28.8038 38.7773 28.609 38.579 28.4144C37.555 27.4096 36.5549 26.4051 35.6319 25.3374L35.6306 25.336C35.3491 25.0128 35.0665 24.6718 34.7803 24.3263C34.2674 23.7074 33.7428 23.0744 33.1921 22.5051C32.3254 21.6093 31.3347 20.8018 30.0552 20.2753C30.0531 20.2736 30.0509 20.2718 30.0487 20.2698C30.035 20.2577 30.0211 20.2436 30.0088 20.229C29.9975 20.2157 29.9899 20.2048 29.9856 20.198C29.6631 19.1626 29.2646 18.3775 28.615 17.9006C28.0614 17.4941 27.3954 17.3612 26.6128 17.386C26.4747 15.886 26.9907 14.4791 27.7259 13.1224L27.7259 13.1224L27.7285 13.1176C28.3182 12.0002 28.99 10.9289 29.672 9.84132L29.702 9.7935C30.3904 8.69561 31.0881 7.58032 31.6956 6.41329C32.0078 5.82627 32.249 5.32949 32.376 4.91086C32.5032 4.49156 32.5453 4.05569 32.3293 3.6604C32.1215 3.28009 31.7372 3.05651 31.3215 2.89247C30.8967 2.72487 30.3369 2.58169 29.6583 2.42475L29.2385 2.32767L29.0805 2.72846C28.8108 3.41234 28.535 4.09751 28.2585 4.78427C27.4985 6.67243 26.7336 8.57263 26.0776 10.4912L26.0776 10.4912L26.0764 10.4945C25.8555 11.1559 25.5621 11.8057 25.2499 12.4747C25.2097 12.5609 25.1691 12.6475 25.1284 12.7345C24.8565 13.3149 24.5764 13.9126 24.3411 14.5198C23.8421 15.8077 23.5208 17.1948 23.8531 18.7421C23.598 18.872 23.3728 19.0391 23.184 19.2466C22.8926 19.5672 22.7098 19.9608 22.6239 20.4063C22.4737 21.1849 22.616 22.1356 22.989 23.2234C20.8756 24.4118 18.5821 24.7544 16.1723 24.9189C15.5724 24.9598 14.962 24.9896 14.3454 25.0196C12.381 25.1153 10.3528 25.2142 8.39826 25.6879L7.94975 25.7966L8.02223 26.2524C8.10141 26.7502 8.18339 27.2389 8.26496 27.7252L8.26518 27.7265C8.34693 28.2139 8.42828 28.6989 8.50675 29.1923ZM25.7025 24.9729C25.707 24.9713 25.7063 24.972 25.7011 24.9735L25.7025 24.9729Z" stroke="#FF7F08"/>
</svg>
